<?xml version="1.0" encoding="us-ascii" standalone="no"?><svg xmlns="http://www.w3.org/2000/svg" xmlns:xlink="http://www.w3.org/1999/xlink" contentStyleType="text/css" height="463px" preserveAspectRatio="none" style="width:389px;height:463px;background:#FFFFFF;" version="1.1" viewBox="0 0 389 463" width="389px" zoomAndPan="magnify"><defs/><g><text fill="#000000" font-family="sans-serif" font-size="14" font-weight="bold" lengthAdjust="spacing" textLength="149" x="119" y="27.9951">Cria&#231;&#227;o de Usu&#225;rio</text><rect fill="#FFFFFF" height="164.6641" style="stroke:#181818;stroke-width:1.0;" width="10" x="213" y="199.9922"/><line style="stroke:#181818;stroke-width:0.5;stroke-dasharray:5.0,5.0;" x1="117" x2="117" y1="118.5938" y2="382.6563"/><line style="stroke:#181818;stroke-width:0.5;stroke-dasharray:5.0,5.0;" x1="218" x2="218" y1="118.5938" y2="382.6563"/><line style="stroke:#181818;stroke-width:0.5;stroke-dasharray:5.0,5.0;" x1="343" x2="343" y1="118.5938" y2="382.6563"/><text fill="#000000" font-family="sans-serif" font-size="14" lengthAdjust="spacing" textLength="32" x="98" y="115.292">User</text><ellipse cx="117" cy="50.7969" fill="#E2E2F0" rx="8" ry="8" style="stroke:#181818;stroke-width:0.5;"/><path d="M117,58.7969 L117,85.7969 M104,66.7969 L130,66.7969 M117,85.7969 L104,100.7969 M117,85.7969 L130,100.7969 " fill="none" style="stroke:#181818;stroke-width:0.5;"/><text fill="#000000" font-family="sans-serif" font-size="14" lengthAdjust="spacing" textLength="32" x="98" y="394.6514">User</text><ellipse cx="117" cy="406.4531" fill="#E2E2F0" rx="8" ry="8" style="stroke:#181818;stroke-width:0.5;"/><path d="M117,414.4531 L117,441.4531 M104,422.4531 L130,422.4531 M117,441.4531 L104,456.4531 M117,441.4531 L130,456.4531 " fill="none" style="stroke:#181818;stroke-width:0.5;"/><rect fill="#E2E2F0" height="30.2969" rx="2.5" ry="2.5" style="stroke:#181818;stroke-width:0.5;" width="100" x="168" y="87.2969"/><text fill="#000000" font-family="sans-serif" font-size="14" lengthAdjust="spacing" textLength="86" x="175" y="107.292">User Service</text><rect fill="#E2E2F0" height="30.2969" rx="2.5" ry="2.5" style="stroke:#181818;stroke-width:0.5;" width="100" x="168" y="381.6563"/><text fill="#000000" font-family="sans-serif" font-size="14" lengthAdjust="spacing" textLength="86" x="175" y="401.6514">User Service</text><rect fill="#E2E2F0" height="30.2969" rx="2.5" ry="2.5" style="stroke:#181818;stroke-width:0.5;" width="80" x="303" y="87.2969"/><text fill="#000000" font-family="sans-serif" font-size="14" lengthAdjust="spacing" textLength="66" x="310" y="107.292">Database</text><rect fill="#E2E2F0" height="30.2969" rx="2.5" ry="2.5" style="stroke:#181818;stroke-width:0.5;" width="80" x="303" y="381.6563"/><text fill="#000000" font-family="sans-serif" font-size="14" lengthAdjust="spacing" textLength="66" x="310" y="401.6514">Database</text><rect fill="#FFFFFF" height="164.6641" style="stroke:#181818;stroke-width:1.0;" width="10" x="213" y="199.9922"/><path d="M5,133.5938 L5,173.5938 L230,173.5938 L230,143.5938 L220,133.5938 L5,133.5938 " fill="#FEFFDD" style="stroke:#181818;stroke-width:0.5;"/><path d="M220,133.5938 L220,143.5938 L230,143.5938 L220,133.5938 " fill="#FEFFDD" style="stroke:#181818;stroke-width:0.5;"/><text fill="#000000" font-family="sans-serif" font-size="13" lengthAdjust="spacing" textLength="146" x="11" y="150.6606">O usu&#225;rio pode ser um</text><text fill="#000000" font-family="sans-serif" font-size="13" font-weight="bold" lengthAdjust="spacing" textLength="54" x="161" y="150.6606">m&#233;dico</text><text fill="#000000" font-family="sans-serif" font-size="13" lengthAdjust="spacing" textLength="41" x="11" y="165.7935">ou um</text><text fill="#000000" font-family="sans-serif" font-size="13" font-weight="bold" lengthAdjust="spacing" textLength="64" x="56" y="165.7935">paciente</text><text fill="#000000" font-family="sans-serif" font-size="13" lengthAdjust="spacing" textLength="4" x="120" y="165.7935">.</text><polygon fill="#181818" points="201,195.9922,211,199.9922,201,203.9922,205,199.9922" style="stroke:#181818;stroke-width:1.0;"/><line style="stroke:#181818;stroke-width:1.0;" x1="117" x2="207" y1="199.9922" y2="199.9922"/><text fill="#000000" font-family="sans-serif" font-size="13" lengthAdjust="spacing" textLength="77" x="124" y="194.9263">POST /users</text><path d="M98,212.9922 L98,237.9922 L338,237.9922 L338,222.9922 L328,212.9922 L98,212.9922 " fill="#FEFFDD" style="stroke:#181818;stroke-width:0.5;"/><path d="M328,212.9922 L328,222.9922 L338,222.9922 L328,212.9922 " fill="#FEFFDD" style="stroke:#181818;stroke-width:0.5;"/><text fill="#000000" font-family="sans-serif" font-size="13" lengthAdjust="spacing" textLength="219" x="104" y="230.0591">Esta rota n&#227;o requer autentica&#231;&#227;o</text><line style="stroke:#181818;stroke-width:1.0;" x1="223" x2="265" y1="264.2578" y2="264.2578"/><line style="stroke:#181818;stroke-width:1.0;" x1="265" x2="265" y1="264.2578" y2="277.2578"/><line style="stroke:#181818;stroke-width:1.0;" x1="224" x2="265" y1="277.2578" y2="277.2578"/><polygon fill="#181818" points="234,273.2578,224,277.2578,234,281.2578,230,277.2578" style="stroke:#181818;stroke-width:1.0;"/><text fill="#000000" font-family="sans-serif" font-size="13" lengthAdjust="spacing" textLength="101" x="230" y="259.1919">Valida os dados</text><polygon fill="#181818" points="331,302.3906,341,306.3906,331,310.3906,335,306.3906" style="stroke:#181818;stroke-width:1.0;"/><line style="stroke:#181818;stroke-width:1.0;" x1="223" x2="337" y1="306.3906" y2="306.3906"/><text fill="#000000" font-family="sans-serif" font-size="13" lengthAdjust="spacing" textLength="88" x="230" y="301.3247">Cria o usu&#225;rio</text><polygon fill="#181818" points="234,331.5234,224,335.5234,234,339.5234,230,335.5234" style="stroke:#181818;stroke-width:1.0;"/><line style="stroke:#181818;stroke-width:1.0;stroke-dasharray:2.0,2.0;" x1="228" x2="342" y1="335.5234" y2="335.5234"/><text fill="#000000" font-family="sans-serif" font-size="13" lengthAdjust="spacing" textLength="41" x="240" y="330.4575">Criado</text><polygon fill="#181818" points="128,360.6563,118,364.6563,128,368.6563,124,364.6563" style="stroke:#181818;stroke-width:1.0;"/><line style="stroke:#181818;stroke-width:1.0;stroke-dasharray:2.0,2.0;" x1="122" x2="217" y1="364.6563" y2="364.6563"/><text fill="#000000" font-family="sans-serif" font-size="13" lengthAdjust="spacing" textLength="69" x="134" y="359.5903">201 Criado</text><!--SRC=[RP4zRiCm38LtdOB8A23z6prqQJkdG9gk1Ijn892OZaJvFaM7ekVmnIf5iH77NIIHVFZuyAIiUuAdm3Zy3Dy2dc0Nq_0LM8n1fn9WjOiKLe0HKdwO3eEoumvRhIFOKkZPqIJvYBKnbpwZuYV6AlFdmfXMb43wZ3dHD_cgww6JRARmqm6iFGo_dfrOQoJLJeUEgLMoziPGww6GZ2aKM3_EZ3Jmkjc-mMtfnUkLazkNg0X1yj6M908TKvPWqho4NStdOb4EXtlCf1daibZQUCSzUmGf0NY92_KOItFw4P0f33DEOBs05gcNAzPPrS33tVseyFI_vpy0]--></g></svg>