<?xml version="1.0" encoding="us-ascii" standalone="no"?><svg xmlns="http://www.w3.org/2000/svg" xmlns:xlink="http://www.w3.org/1999/xlink" contentStyleType="text/css" height="478px" preserveAspectRatio="none" style="width:385px;height:478px;background:#FFFFFF;" version="1.1" viewBox="0 0 385 478" width="385px" zoomAndPan="magnify"><defs/><g><text fill="#000000" font-family="sans-serif" font-size="14" font-weight="bold" lengthAdjust="spacing" textLength="175" x="104" y="27.9951">Creating an User Flow</text><rect fill="#FFFFFF" height="179.7969" style="stroke:#181818;stroke-width:1.0;" width="10" x="226" y="199.9922"/><line style="stroke:#181818;stroke-width:0.5;stroke-dasharray:5.0,5.0;" x1="123" x2="123" y1="118.5938" y2="397.7891"/><line style="stroke:#181818;stroke-width:0.5;stroke-dasharray:5.0,5.0;" x1="231" x2="231" y1="118.5938" y2="397.7891"/><line style="stroke:#181818;stroke-width:0.5;stroke-dasharray:5.0,5.0;" x1="339" x2="339" y1="118.5938" y2="397.7891"/><text fill="#000000" font-family="sans-serif" font-size="14" lengthAdjust="spacing" textLength="32" x="104" y="115.292">User</text><ellipse cx="123" cy="50.7969" fill="#E2E2F0" rx="8" ry="8" style="stroke:#181818;stroke-width:0.5;"/><path d="M123,58.7969 L123,85.7969 M110,66.7969 L136,66.7969 M123,85.7969 L110,100.7969 M123,85.7969 L136,100.7969 " fill="none" style="stroke:#181818;stroke-width:0.5;"/><text fill="#000000" font-family="sans-serif" font-size="14" lengthAdjust="spacing" textLength="32" x="104" y="409.7842">User</text><ellipse cx="123" cy="421.5859" fill="#E2E2F0" rx="8" ry="8" style="stroke:#181818;stroke-width:0.5;"/><path d="M123,429.5859 L123,456.5859 M110,437.5859 L136,437.5859 M123,456.5859 L110,471.5859 M123,456.5859 L136,471.5859 " fill="none" style="stroke:#181818;stroke-width:0.5;"/><rect fill="#E2E2F0" height="30.2969" rx="2.5" ry="2.5" style="stroke:#181818;stroke-width:0.5;" width="100" x="181" y="87.2969"/><text fill="#000000" font-family="sans-serif" font-size="14" lengthAdjust="spacing" textLength="86" x="188" y="107.292">User Service</text><rect fill="#E2E2F0" height="30.2969" rx="2.5" ry="2.5" style="stroke:#181818;stroke-width:0.5;" width="100" x="181" y="396.7891"/><text fill="#000000" font-family="sans-serif" font-size="14" lengthAdjust="spacing" textLength="86" x="188" y="416.7842">User Service</text><rect fill="#E2E2F0" height="30.2969" rx="2.5" ry="2.5" style="stroke:#181818;stroke-width:0.5;" width="80" x="299" y="87.2969"/><text fill="#000000" font-family="sans-serif" font-size="14" lengthAdjust="spacing" textLength="66" x="306" y="107.292">Database</text><rect fill="#E2E2F0" height="30.2969" rx="2.5" ry="2.5" style="stroke:#181818;stroke-width:0.5;" width="80" x="299" y="396.7891"/><text fill="#000000" font-family="sans-serif" font-size="14" lengthAdjust="spacing" textLength="66" x="306" y="416.7842">Database</text><rect fill="#FFFFFF" height="179.7969" style="stroke:#181818;stroke-width:1.0;" width="10" x="226" y="199.9922"/><path d="M5,133.5938 L5,173.5938 L242,173.5938 L242,143.5938 L232,133.5938 L5,133.5938 " fill="#FEFFDD" style="stroke:#181818;stroke-width:0.5;"/><path d="M232,133.5938 L232,143.5938 L242,143.5938 L232,133.5938 " fill="#FEFFDD" style="stroke:#181818;stroke-width:0.5;"/><text fill="#000000" font-family="sans-serif" font-size="13" lengthAdjust="spacing" textLength="216" x="11" y="150.6606">In this example, the user could be</text><text fill="#000000" font-family="sans-serif" font-size="13" lengthAdjust="spacing" textLength="8" x="11" y="165.7935">a</text><text fill="#000000" font-family="sans-serif" font-size="13" font-weight="bold" lengthAdjust="spacing" textLength="48" x="23" y="165.7935">doctor</text><text fill="#000000" font-family="sans-serif" font-size="13" lengthAdjust="spacing" textLength="25" x="75" y="165.7935">or a</text><text fill="#000000" font-family="sans-serif" font-size="13" font-weight="bold" lengthAdjust="spacing" textLength="53" x="104" y="165.7935">patient</text><text fill="#000000" font-family="sans-serif" font-size="13" lengthAdjust="spacing" textLength="4" x="157" y="165.7935">.</text><polygon fill="#181818" points="214,195.9922,224,199.9922,214,203.9922,218,199.9922" style="stroke:#181818;stroke-width:1.0;"/><line style="stroke:#181818;stroke-width:1.0;" x1="123" x2="220" y1="199.9922" y2="199.9922"/><text fill="#000000" font-family="sans-serif" font-size="13" lengthAdjust="spacing" textLength="77" x="130" y="194.9263">POST /users</text><path d="M150,212.9922 L150,252.9922 L312,252.9922 L312,222.9922 L302,212.9922 L150,212.9922 " fill="#FEFFDD" style="stroke:#181818;stroke-width:0.5;"/><path d="M302,212.9922 L302,222.9922 L312,222.9922 L302,212.9922 " fill="#FEFFDD" style="stroke:#181818;stroke-width:0.5;"/><text fill="#000000" font-family="sans-serif" font-size="13" lengthAdjust="spacing" textLength="98" x="156" y="230.0591">This route does</text><text fill="#000000" font-family="sans-serif" font-size="13" font-weight="bold" lengthAdjust="spacing" textLength="24" x="258" y="230.0591">not</text><text fill="#000000" font-family="sans-serif" font-size="13" lengthAdjust="spacing" textLength="141" x="156" y="245.1919">require authentication</text><line style="stroke:#181818;stroke-width:1.0;" x1="236" x2="278" y1="279.3906" y2="279.3906"/><line style="stroke:#181818;stroke-width:1.0;" x1="278" x2="278" y1="279.3906" y2="292.3906"/><line style="stroke:#181818;stroke-width:1.0;" x1="237" x2="278" y1="292.3906" y2="292.3906"/><polygon fill="#181818" points="247,288.3906,237,292.3906,247,296.3906,243,292.3906" style="stroke:#181818;stroke-width:1.0;"/><text fill="#000000" font-family="sans-serif" font-size="13" lengthAdjust="spacing" textLength="84" x="243" y="274.3247">Validate user</text><polygon fill="#181818" points="327,317.5234,337,321.5234,327,325.5234,331,321.5234" style="stroke:#181818;stroke-width:1.0;"/><line style="stroke:#181818;stroke-width:1.0;" x1="236" x2="333" y1="321.5234" y2="321.5234"/><text fill="#000000" font-family="sans-serif" font-size="13" lengthAdjust="spacing" textLength="75" x="243" y="316.4575">Create user</text><polygon fill="#181818" points="247,346.6563,237,350.6563,247,354.6563,243,350.6563" style="stroke:#181818;stroke-width:1.0;"/><line style="stroke:#181818;stroke-width:1.0;stroke-dasharray:2.0,2.0;" x1="241" x2="338" y1="350.6563" y2="350.6563"/><text fill="#000000" font-family="sans-serif" font-size="13" lengthAdjust="spacing" textLength="51" x="253" y="345.5903">Created</text><polygon fill="#181818" points="134,375.7891,124,379.7891,134,383.7891,130,379.7891" style="stroke:#181818;stroke-width:1.0;"/><line style="stroke:#181818;stroke-width:1.0;stroke-dasharray:2.0,2.0;" x1="128" x2="230" y1="379.7891" y2="379.7891"/><text fill="#000000" font-family="sans-serif" font-size="13" lengthAdjust="spacing" textLength="79" x="140" y="374.7231">201 Created</text><!--SRC=[RP7BJiGm34Nt-OghMKOChsKNR418h42QWItoD1P4Aab9t87Fn-bBqocxsZwvFad5IyEuJqpYmmSeu3LpmcCJVuoXMcB2fdGse8nEFqnBINpjMmeoZB3ZTFGrpyXx7XfBz8643fG7p8s5CI4A8nurfaz_2f1Fdy6_zDKsVA4LznFKiMiS3cm8rhfOrAo5-fMwLNqEOksbuU1GGetfZstl5auLNfvtUroLNZxVFellYqAAdGvTvAmB5BJM9FxkV69Gfrf1xwPhOpXPgI_cZoIyZ3ijra9lr7WtdLcnqqjLmqyQgQcBxIfkmDnPq8XLkBs-cH77__l-0G00]--></g></svg>