<?xml version="1.0" encoding="us-ascii" standalone="no"?><svg xmlns="http://www.w3.org/2000/svg" xmlns:xlink="http://www.w3.org/1999/xlink" contentStyleType="text/css" height="443px" preserveAspectRatio="none" style="width:447px;height:443px;background:#FFFFFF;" version="1.1" viewBox="0 0 447 443" width="447px" zoomAndPan="magnify"><defs/><g><text fill="#000000" font-family="sans-serif" font-size="14" font-weight="bold" lengthAdjust="spacing" textLength="166" x="139.5" y="27.9951">Obten&#231;&#227;o de Usu&#225;rio</text><rect fill="#FFFFFF" height="129.5313" style="stroke:#181818;stroke-width:1.0;" width="10" x="229" y="215.125"/><line style="stroke:#181818;stroke-width:0.5;stroke-dasharray:5.0,5.0;" x1="117" x2="117" y1="118.5938" y2="362.6563"/><line style="stroke:#181818;stroke-width:0.5;stroke-dasharray:5.0,5.0;" x1="234" x2="234" y1="118.5938" y2="362.6563"/><line style="stroke:#181818;stroke-width:0.5;stroke-dasharray:5.0,5.0;" x1="401" x2="401" y1="118.5938" y2="362.6563"/><text fill="#000000" font-family="sans-serif" font-size="14" lengthAdjust="spacing" textLength="32" x="98" y="115.292">User</text><ellipse cx="117" cy="50.7969" fill="#E2E2F0" rx="8" ry="8" style="stroke:#181818;stroke-width:0.5;"/><path d="M117,58.7969 L117,85.7969 M104,66.7969 L130,66.7969 M117,85.7969 L104,100.7969 M117,85.7969 L130,100.7969 " fill="none" style="stroke:#181818;stroke-width:0.5;"/><text fill="#000000" font-family="sans-serif" font-size="14" lengthAdjust="spacing" textLength="32" x="98" y="374.6514">User</text><ellipse cx="117" cy="386.4531" fill="#E2E2F0" rx="8" ry="8" style="stroke:#181818;stroke-width:0.5;"/><path d="M117,394.4531 L117,421.4531 M104,402.4531 L130,402.4531 M117,421.4531 L104,436.4531 M117,421.4531 L130,436.4531 " fill="none" style="stroke:#181818;stroke-width:0.5;"/><rect fill="#E2E2F0" height="30.2969" rx="2.5" ry="2.5" style="stroke:#181818;stroke-width:0.5;" width="100" x="184" y="87.2969"/><text fill="#000000" font-family="sans-serif" font-size="14" lengthAdjust="spacing" textLength="86" x="191" y="107.292">User Service</text><rect fill="#E2E2F0" height="30.2969" rx="2.5" ry="2.5" style="stroke:#181818;stroke-width:0.5;" width="100" x="184" y="361.6563"/><text fill="#000000" font-family="sans-serif" font-size="14" lengthAdjust="spacing" textLength="86" x="191" y="381.6514">User Service</text><rect fill="#E2E2F0" height="30.2969" rx="2.5" ry="2.5" style="stroke:#181818;stroke-width:0.5;" width="80" x="361" y="87.2969"/><text fill="#000000" font-family="sans-serif" font-size="14" lengthAdjust="spacing" textLength="66" x="368" y="107.292">Database</text><rect fill="#E2E2F0" height="30.2969" rx="2.5" ry="2.5" style="stroke:#181818;stroke-width:0.5;" width="80" x="361" y="361.6563"/><text fill="#000000" font-family="sans-serif" font-size="14" lengthAdjust="spacing" textLength="66" x="368" y="381.6514">Database</text><rect fill="#FFFFFF" height="129.5313" style="stroke:#181818;stroke-width:1.0;" width="10" x="229" y="215.125"/><path d="M5,133.5938 L5,173.5938 L230,173.5938 L230,143.5938 L220,133.5938 L5,133.5938 " fill="#FEFFDD" style="stroke:#181818;stroke-width:0.5;"/><path d="M220,133.5938 L220,143.5938 L230,143.5938 L220,133.5938 " fill="#FEFFDD" style="stroke:#181818;stroke-width:0.5;"/><text fill="#000000" font-family="sans-serif" font-size="13" lengthAdjust="spacing" textLength="146" x="11" y="150.6606">O usu&#225;rio pode ser um</text><text fill="#000000" font-family="sans-serif" font-size="13" font-weight="bold" lengthAdjust="spacing" textLength="54" x="161" y="150.6606">m&#233;dico</text><text fill="#000000" font-family="sans-serif" font-size="13" lengthAdjust="spacing" textLength="41" x="11" y="165.7935">ou um</text><text fill="#000000" font-family="sans-serif" font-size="13" font-weight="bold" lengthAdjust="spacing" textLength="64" x="56" y="165.7935">paciente</text><text fill="#000000" font-family="sans-serif" font-size="13" lengthAdjust="spacing" textLength="4" x="120" y="165.7935">.</text><polygon fill="#181818" points="217,211.125,227,215.125,217,219.125,221,215.125" style="stroke:#181818;stroke-width:1.0;"/><line style="stroke:#181818;stroke-width:1.0;" x1="117" x2="223" y1="215.125" y2="215.125"/><text fill="#000000" font-family="sans-serif" font-size="13" lengthAdjust="spacing" textLength="93" x="124" y="194.9263">GET /users/me</text><text fill="#000000" font-family="sans-serif" font-size="13" lengthAdjust="spacing" textLength="78" x="124" y="210.0591">(Bearer JWT)</text><line style="stroke:#181818;stroke-width:1.0;" x1="239" x2="281" y1="244.2578" y2="244.2578"/><line style="stroke:#181818;stroke-width:1.0;" x1="281" x2="281" y1="244.2578" y2="257.2578"/><line style="stroke:#181818;stroke-width:1.0;" x1="240" x2="281" y1="257.2578" y2="257.2578"/><polygon fill="#181818" points="250,253.2578,240,257.2578,250,261.2578,246,257.2578" style="stroke:#181818;stroke-width:1.0;"/><text fill="#000000" font-family="sans-serif" font-size="13" lengthAdjust="spacing" textLength="143" x="246" y="239.1919">Obt&#233;m o usu&#225;rio atual</text><polygon fill="#181818" points="389,282.3906,399,286.3906,389,290.3906,393,286.3906" style="stroke:#181818;stroke-width:1.0;"/><line style="stroke:#181818;stroke-width:1.0;" x1="239" x2="395" y1="286.3906" y2="286.3906"/><text fill="#000000" font-family="sans-serif" font-size="13" lengthAdjust="spacing" textLength="138" x="246" y="281.3247">Busca o usu&#225;rio atual</text><polygon fill="#181818" points="250,311.5234,240,315.5234,250,319.5234,246,315.5234" style="stroke:#181818;stroke-width:1.0;"/><line style="stroke:#181818;stroke-width:1.0;stroke-dasharray:2.0,2.0;" x1="244" x2="400" y1="315.5234" y2="315.5234"/><text fill="#000000" font-family="sans-serif" font-size="13" lengthAdjust="spacing" textLength="73" x="256" y="310.4575">Encontrado</text><polygon fill="#181818" points="128,340.6563,118,344.6563,128,348.6563,124,344.6563" style="stroke:#181818;stroke-width:1.0;"/><line style="stroke:#181818;stroke-width:1.0;stroke-dasharray:2.0,2.0;" x1="122" x2="233" y1="344.6563" y2="344.6563"/><text fill="#000000" font-family="sans-serif" font-size="13" lengthAdjust="spacing" textLength="46" x="134" y="339.5903">200 OK</text><!--SRC=[RP2nJWCn38RtF8NLgKGghHXlOAYeAj7X1bgn824tyH2f5vyIvzu7CQ0-nxqOET82np4bTdv__l-8anD1VHJo_KV_pc093Z7rRy6nKcY40ymEaS8CC4BA5zLY46TSYrxA4pnHw9oXRybhB8snz045ZnYBp5uAfJmB0NSPyqMlyr7MGylPpC1F3MZTz6Vh36kjE9LEYyQH5zBwLf6tC92K6YYmk1yPgM2xsSDoQCLbGoz-lYOCMVVulByPKheEiukHzz_5b9T_h3ytm3zkKHAU9bFNd1MiKpGu7RWAO37PiV66lGIq_0TxKLPmjrf1lLEM_e_m2G00]--></g></svg>