<?xml version="1.0" encoding="us-ascii" standalone="no"?><svg xmlns="http://www.w3.org/2000/svg" xmlns:xlink="http://www.w3.org/1999/xlink" contentStyleType="text/css" height="672px" preserveAspectRatio="none" style="width:498px;height:672px;background:#FFFFFF;" version="1.1" viewBox="0 0 498 672" width="498px" zoomAndPan="magnify"><defs/><g><text fill="#000000" font-family="sans-serif" font-size="14" font-weight="bold" lengthAdjust="spacing" textLength="133" x="181.5" y="27.9951">Login de Usu&#225;rio</text><rect fill="#FFFFFF" height="373.2578" style="stroke:#181818;stroke-width:1.0;" width="10" x="247" y="199.9922"/><line style="stroke:#181818;stroke-width:0.5;stroke-dasharray:5.0,5.0;" x1="117" x2="117" y1="118.5938" y2="591.25"/><line style="stroke:#181818;stroke-width:0.5;stroke-dasharray:5.0,5.0;" x1="252" x2="252" y1="118.5938" y2="591.25"/><line style="stroke:#181818;stroke-width:0.5;stroke-dasharray:5.0,5.0;" x1="452" x2="452" y1="118.5938" y2="591.25"/><text fill="#000000" font-family="sans-serif" font-size="14" lengthAdjust="spacing" textLength="32" x="98" y="115.292">User</text><ellipse cx="117" cy="50.7969" fill="#E2E2F0" rx="8" ry="8" style="stroke:#181818;stroke-width:0.5;"/><path d="M117,58.7969 L117,85.7969 M104,66.7969 L130,66.7969 M117,85.7969 L104,100.7969 M117,85.7969 L130,100.7969 " fill="none" style="stroke:#181818;stroke-width:0.5;"/><text fill="#000000" font-family="sans-serif" font-size="14" lengthAdjust="spacing" textLength="32" x="98" y="603.2451">User</text><ellipse cx="117" cy="615.0469" fill="#E2E2F0" rx="8" ry="8" style="stroke:#181818;stroke-width:0.5;"/><path d="M117,623.0469 L117,650.0469 M104,631.0469 L130,631.0469 M117,650.0469 L104,665.0469 M117,650.0469 L130,665.0469 " fill="none" style="stroke:#181818;stroke-width:0.5;"/><rect fill="#E2E2F0" height="30.2969" rx="2.5" ry="2.5" style="stroke:#181818;stroke-width:0.5;" width="100" x="202" y="87.2969"/><text fill="#000000" font-family="sans-serif" font-size="14" lengthAdjust="spacing" textLength="86" x="209" y="107.292">User Service</text><rect fill="#E2E2F0" height="30.2969" rx="2.5" ry="2.5" style="stroke:#181818;stroke-width:0.5;" width="100" x="202" y="590.25"/><text fill="#000000" font-family="sans-serif" font-size="14" lengthAdjust="spacing" textLength="86" x="209" y="610.2451">User Service</text><rect fill="#E2E2F0" height="30.2969" rx="2.5" ry="2.5" style="stroke:#181818;stroke-width:0.5;" width="80" x="412" y="87.2969"/><text fill="#000000" font-family="sans-serif" font-size="14" lengthAdjust="spacing" textLength="66" x="419" y="107.292">Database</text><rect fill="#E2E2F0" height="30.2969" rx="2.5" ry="2.5" style="stroke:#181818;stroke-width:0.5;" width="80" x="412" y="590.25"/><text fill="#000000" font-family="sans-serif" font-size="14" lengthAdjust="spacing" textLength="66" x="419" y="610.2451">Database</text><rect fill="#FFFFFF" height="373.2578" style="stroke:#181818;stroke-width:1.0;" width="10" x="247" y="199.9922"/><path d="M5,133.5938 L5,173.5938 L230,173.5938 L230,143.5938 L220,133.5938 L5,133.5938 " fill="#FEFFDD" style="stroke:#181818;stroke-width:0.5;"/><path d="M220,133.5938 L220,143.5938 L230,143.5938 L220,133.5938 " fill="#FEFFDD" style="stroke:#181818;stroke-width:0.5;"/><text fill="#000000" font-family="sans-serif" font-size="13" lengthAdjust="spacing" textLength="146" x="11" y="150.6606">O usu&#225;rio pode ser um</text><text fill="#000000" font-family="sans-serif" font-size="13" font-weight="bold" lengthAdjust="spacing" textLength="54" x="161" y="150.6606">m&#233;dico</text><text fill="#000000" font-family="sans-serif" font-size="13" lengthAdjust="spacing" textLength="41" x="11" y="165.7935">ou um</text><text fill="#000000" font-family="sans-serif" font-size="13" font-weight="bold" lengthAdjust="spacing" textLength="64" x="56" y="165.7935">paciente</text><text fill="#000000" font-family="sans-serif" font-size="13" lengthAdjust="spacing" textLength="4" x="120" y="165.7935">.</text><polygon fill="#181818" points="235,195.9922,245,199.9922,235,203.9922,239,199.9922" style="stroke:#181818;stroke-width:1.0;"/><line style="stroke:#181818;stroke-width:1.0;" x1="117" x2="241" y1="199.9922" y2="199.9922"/><text fill="#000000" font-family="sans-serif" font-size="13" lengthAdjust="spacing" textLength="111" x="124" y="194.9263">POST /users/login</text><path d="M95,212.9922 L95,403.9922 L408,403.9922 L408,222.9922 L398,212.9922 L95,212.9922 " fill="#FEFFDD" style="stroke:#181818;stroke-width:0.5;"/><path d="M398,212.9922 L398,222.9922 L408,222.9922 L398,212.9922 " fill="#FEFFDD" style="stroke:#181818;stroke-width:0.5;"/><text fill="#000000" font-family="sans-serif" font-size="13" lengthAdjust="spacing" textLength="203" x="101" y="230.0591">O servi&#231;o do usu&#225;rio validar&#225; as</text><text fill="#000000" font-family="sans-serif" font-size="13" lengthAdjust="spacing" textLength="292" x="101" y="245.1919">credenciais de acordo com o m&#233;todo de login</text><text fill="#000000" font-family="sans-serif" font-size="13" lengthAdjust="spacing" textLength="146" x="101" y="260.3247">escolhido pelo usu&#225;rio.</text><text fill="#000000" font-family="sans-serif" font-size="13" lengthAdjust="spacing" textLength="4" x="101" y="275.4575">&#160;</text><text fill="#000000" font-family="sans-serif" font-size="13" lengthAdjust="spacing" textLength="126" x="101" y="290.5903">Se o usu&#225;rio for um</text><text fill="#000000" font-family="sans-serif" font-size="13" font-weight="bold" lengthAdjust="spacing" textLength="54" x="231" y="290.5903">m&#233;dico</text><text fill="#000000" font-family="sans-serif" font-size="13" lengthAdjust="spacing" textLength="16" x="285" y="290.5903">, o</text><text fill="#000000" font-family="sans-serif" font-size="13" lengthAdjust="spacing" textLength="111" x="101" y="305.7231">servi&#231;o validar&#225; o</text><text fill="#000000" font-family="sans-serif" font-size="13" font-weight="bold" lengthAdjust="spacing" textLength="74" x="101" y="320.856">ID m&#233;dico</text><text fill="#000000" font-family="sans-serif" font-size="13" lengthAdjust="spacing" textLength="20" x="179" y="320.856">e a</text><text fill="#000000" font-family="sans-serif" font-size="13" font-weight="bold" lengthAdjust="spacing" textLength="44" x="203" y="320.856">senha</text><text fill="#000000" font-family="sans-serif" font-size="13" lengthAdjust="spacing" textLength="4" x="247" y="320.856">.</text><text fill="#000000" font-family="sans-serif" font-size="13" lengthAdjust="spacing" textLength="4" x="101" y="335.9888">&#160;</text><text fill="#000000" font-family="sans-serif" font-size="13" lengthAdjust="spacing" textLength="126" x="101" y="351.1216">Se o usu&#225;rio for um</text><text fill="#000000" font-family="sans-serif" font-size="13" font-weight="bold" lengthAdjust="spacing" textLength="64" x="231" y="351.1216">paciente</text><text fill="#000000" font-family="sans-serif" font-size="13" lengthAdjust="spacing" textLength="16" x="295" y="351.1216">, o</text><text fill="#000000" font-family="sans-serif" font-size="13" lengthAdjust="spacing" textLength="111" x="101" y="366.2544">servi&#231;o validar&#225; o</text><text fill="#000000" font-family="sans-serif" font-size="13" font-weight="bold" lengthAdjust="spacing" textLength="45" x="101" y="381.3872">e-mail</text><text fill="#000000" font-family="sans-serif" font-size="13" lengthAdjust="spacing" textLength="16" x="150" y="381.3872">ou</text><text fill="#000000" font-family="sans-serif" font-size="13" font-weight="bold" lengthAdjust="spacing" textLength="173" x="170" y="381.3872">ID do documento (CPF)</text><text fill="#000000" font-family="sans-serif" font-size="13" lengthAdjust="spacing" textLength="20" x="101" y="396.52">e a</text><text fill="#000000" font-family="sans-serif" font-size="13" font-weight="bold" lengthAdjust="spacing" textLength="44" x="125" y="396.52">senha</text><text fill="#000000" font-family="sans-serif" font-size="13" lengthAdjust="spacing" textLength="4" x="169" y="396.52">.</text><line style="stroke:#181818;stroke-width:1.0;" x1="257" x2="299" y1="430.7188" y2="430.7188"/><line style="stroke:#181818;stroke-width:1.0;" x1="299" x2="299" y1="430.7188" y2="443.7188"/><line style="stroke:#181818;stroke-width:1.0;" x1="258" x2="299" y1="443.7188" y2="443.7188"/><polygon fill="#181818" points="268,439.7188,258,443.7188,268,447.7188,264,443.7188" style="stroke:#181818;stroke-width:1.0;"/><text fill="#000000" font-family="sans-serif" font-size="13" lengthAdjust="spacing" textLength="101" x="264" y="425.6528">Valida os dados</text><polygon fill="#181818" points="440,468.8516,450,472.8516,440,476.8516,444,472.8516" style="stroke:#181818;stroke-width:1.0;"/><line style="stroke:#181818;stroke-width:1.0;" x1="257" x2="446" y1="472.8516" y2="472.8516"/><text fill="#000000" font-family="sans-serif" font-size="13" lengthAdjust="spacing" textLength="171" x="264" y="467.7856">Verifica se o usu&#225;rio existe</text><polygon fill="#181818" points="268,497.9844,258,501.9844,268,505.9844,264,501.9844" style="stroke:#181818;stroke-width:1.0;"/><line style="stroke:#181818;stroke-width:1.0;stroke-dasharray:2.0,2.0;" x1="262" x2="451" y1="501.9844" y2="501.9844"/><text fill="#000000" font-family="sans-serif" font-size="13" lengthAdjust="spacing" textLength="126" x="274" y="496.9185">Usu&#225;rio encontrado</text><line style="stroke:#181818;stroke-width:1.0;" x1="257" x2="299" y1="531.1172" y2="531.1172"/><line style="stroke:#181818;stroke-width:1.0;" x1="299" x2="299" y1="531.1172" y2="544.1172"/><line style="stroke:#181818;stroke-width:1.0;" x1="258" x2="299" y1="544.1172" y2="544.1172"/><polygon fill="#181818" points="268,540.1172,258,544.1172,268,548.1172,264,544.1172" style="stroke:#181818;stroke-width:1.0;"/><text fill="#000000" font-family="sans-serif" font-size="13" lengthAdjust="spacing" textLength="159" x="264" y="526.0513">Cria um token de acesso</text><polygon fill="#181818" points="128,569.25,118,573.25,128,577.25,124,573.25" style="stroke:#181818;stroke-width:1.0;"/><line style="stroke:#181818;stroke-width:1.0;stroke-dasharray:2.0,2.0;" x1="122" x2="251" y1="573.25" y2="573.25"/><text fill="#000000" font-family="sans-serif" font-size="13" lengthAdjust="spacing" textLength="46" x="134" y="568.1841">200 OK</text><!--SRC=[XLBBJiCm4BpxArQS8A8FSUJ0XGe9WTHAfLpHOYzqHUADRAVYTtf2V4T_Z7K32Mrvd69lPcTcPvqubGItyimU7C4YDfjrO346RP80Huj8uGWmGgC7KsD8RBb6dzfVCAUmOaiTv26sXLte11C-OcnXxlDYZ9T482kbsR9FzTFAGorg9lCt5HH5jNbtRAKeZ3HjfKRBv1CLnT2GTv2PZCaiCBZOCN8Ei-dy3aQv5aTb7dHVkFCyXUrfyoRWf3Upmf8TXirQtHiRo96tZ1npO6WbADPA1GBgCudUjDuAKRHIBbbBDPKzuz2OkUht2a-oF-afYEdCz0R45CNr13eOg0DjY-INcBFuZRVFwmzY6bJ8fP9gobkPF8hOfj9EWUFBsTM9hc1FiKzVNmolK8FToVJxvN0tzri38FbLE8a7wA-teaWA_CGMTKNV9wHNZYh-XOF1WSIYWtehFWNL-SVKPM3CiILv8TykcMBSx_fiEuUpyHYcDyRHpm5y0000]--></g></svg>