<?xml version="1.0" encoding="us-ascii" standalone="no"?><svg xmlns="http://www.w3.org/2000/svg" xmlns:xlink="http://www.w3.org/1999/xlink" contentStyleType="text/css" height="466px" preserveAspectRatio="none" style="width:483px;height:466px;background:#FFFFFF;" version="1.1" viewBox="0 0 483 466" width="483px" zoomAndPan="magnify"><defs/><g><text fill="#000000" font-family="sans-serif" font-size="14" font-weight="bold" lengthAdjust="spacing" textLength="164" x="158" y="27.9951">Search Doctors Flow</text><rect fill="#FFFFFF" height="152.7969" style="stroke:#181818;stroke-width:1.0;" width="10" x="262" y="215.125"/><line style="stroke:#181818;stroke-width:0.5;stroke-dasharray:5.0,5.0;" x1="123" x2="123" y1="118.5938" y2="385.9219"/><line style="stroke:#181818;stroke-width:0.5;stroke-dasharray:5.0,5.0;" x1="267" x2="267" y1="118.5938" y2="385.9219"/><line style="stroke:#181818;stroke-width:0.5;stroke-dasharray:5.0,5.0;" x1="371" x2="371" y1="118.5938" y2="385.9219"/><text fill="#000000" font-family="sans-serif" font-size="14" lengthAdjust="spacing" textLength="32" x="104" y="115.292">User</text><ellipse cx="123" cy="50.7969" fill="#E2E2F0" rx="8" ry="8" style="stroke:#181818;stroke-width:0.5;"/><path d="M123,58.7969 L123,85.7969 M110,66.7969 L136,66.7969 M123,85.7969 L110,100.7969 M123,85.7969 L136,100.7969 " fill="none" style="stroke:#181818;stroke-width:0.5;"/><text fill="#000000" font-family="sans-serif" font-size="14" lengthAdjust="spacing" textLength="32" x="104" y="397.917">User</text><ellipse cx="123" cy="409.7188" fill="#E2E2F0" rx="8" ry="8" style="stroke:#181818;stroke-width:0.5;"/><path d="M123,417.7188 L123,444.7188 M110,425.7188 L136,425.7188 M123,444.7188 L110,459.7188 M123,444.7188 L136,459.7188 " fill="none" style="stroke:#181818;stroke-width:0.5;"/><rect fill="#E2E2F0" height="30.2969" rx="2.5" ry="2.5" style="stroke:#181818;stroke-width:0.5;" width="100" x="217" y="87.2969"/><text fill="#000000" font-family="sans-serif" font-size="14" lengthAdjust="spacing" textLength="86" x="224" y="107.292">User Service</text><rect fill="#E2E2F0" height="30.2969" rx="2.5" ry="2.5" style="stroke:#181818;stroke-width:0.5;" width="100" x="217" y="384.9219"/><text fill="#000000" font-family="sans-serif" font-size="14" lengthAdjust="spacing" textLength="86" x="224" y="404.917">User Service</text><rect fill="#E2E2F0" height="30.2969" rx="2.5" ry="2.5" style="stroke:#181818;stroke-width:0.5;" width="80" x="331" y="87.2969"/><text fill="#000000" font-family="sans-serif" font-size="14" lengthAdjust="spacing" textLength="66" x="338" y="107.292">Database</text><rect fill="#E2E2F0" height="30.2969" rx="2.5" ry="2.5" style="stroke:#181818;stroke-width:0.5;" width="80" x="331" y="384.9219"/><text fill="#000000" font-family="sans-serif" font-size="14" lengthAdjust="spacing" textLength="66" x="338" y="404.917">Database</text><rect fill="#FFFFFF" height="152.7969" style="stroke:#181818;stroke-width:1.0;" width="10" x="262" y="215.125"/><path d="M5,133.5938 L5,173.5938 L242,173.5938 L242,143.5938 L232,133.5938 L5,133.5938 " fill="#FEFFDD" style="stroke:#181818;stroke-width:0.5;"/><path d="M232,133.5938 L232,143.5938 L242,143.5938 L232,133.5938 " fill="#FEFFDD" style="stroke:#181818;stroke-width:0.5;"/><text fill="#000000" font-family="sans-serif" font-size="13" lengthAdjust="spacing" textLength="216" x="11" y="150.6606">In this example, the user could be</text><text fill="#000000" font-family="sans-serif" font-size="13" lengthAdjust="spacing" textLength="38" x="11" y="165.7935">only a</text><text fill="#000000" font-family="sans-serif" font-size="13" font-weight="bold" lengthAdjust="spacing" textLength="53" x="53" y="165.7935">patient</text><text fill="#000000" font-family="sans-serif" font-size="13" lengthAdjust="spacing" textLength="4" x="106" y="165.7935">.</text><polygon fill="#181818" points="250,211.125,260,215.125,250,219.125,254,215.125" style="stroke:#181818;stroke-width:1.0;"/><line style="stroke:#181818;stroke-width:1.0;" x1="123" x2="256" y1="215.125" y2="215.125"/><text fill="#000000" font-family="sans-serif" font-size="13" lengthAdjust="spacing" textLength="120" x="130" y="194.9263">GET /users/doctors</text><text fill="#000000" font-family="sans-serif" font-size="13" lengthAdjust="spacing" textLength="78" x="130" y="210.0591">(Bearer JWT)</text><polygon fill="#181818" points="359,240.2578,369,244.2578,359,248.2578,363,244.2578" style="stroke:#181818;stroke-width:1.0;"/><line style="stroke:#181818;stroke-width:1.0;" x1="272" x2="365" y1="244.2578" y2="244.2578"/><text fill="#000000" font-family="sans-serif" font-size="13" lengthAdjust="spacing" textLength="75" x="279" y="239.1919">Get doctors</text><path d="M265,257.2578 L265,312.2578 L476,312.2578 L476,267.2578 L466,257.2578 L265,257.2578 " fill="#FEFFDD" style="stroke:#181818;stroke-width:0.5;"/><path d="M466,257.2578 L466,267.2578 L476,267.2578 L466,257.2578 " fill="#FEFFDD" style="stroke:#181818;stroke-width:0.5;"/><text fill="#000000" font-family="sans-serif" font-size="13" lengthAdjust="spacing" textLength="190" x="271" y="274.3247">This query could be filtered by</text><text fill="#000000" font-family="sans-serif" font-size="13" lengthAdjust="spacing" textLength="181" x="271" y="289.4575">specialty, medical ID, street,</text><text fill="#000000" font-family="sans-serif" font-size="13" lengthAdjust="spacing" textLength="91" x="271" y="304.5903">state, zip, etc.</text><polygon fill="#181818" points="283,334.7891,273,338.7891,283,342.7891,279,338.7891" style="stroke:#181818;stroke-width:1.0;"/><line style="stroke:#181818;stroke-width:1.0;stroke-dasharray:2.0,2.0;" x1="277" x2="370" y1="338.7891" y2="338.7891"/><text fill="#000000" font-family="sans-serif" font-size="13" lengthAdjust="spacing" textLength="39" x="289" y="333.7231">Found</text><polygon fill="#181818" points="134,363.9219,124,367.9219,134,371.9219,130,367.9219" style="stroke:#181818;stroke-width:1.0;"/><line style="stroke:#181818;stroke-width:1.0;stroke-dasharray:2.0,2.0;" x1="128" x2="266" y1="367.9219" y2="367.9219"/><text fill="#000000" font-family="sans-serif" font-size="13" lengthAdjust="spacing" textLength="46" x="140" y="362.856">200 OK</text><!--SRC=[ROynJyCm48Lt_ugdJX2bj6Bim81AKM5We8W52LtjGxNasi6-5CAlnsdIgg5iz-wUdzydLXpZcIdg3UP1IuW92nU-bA9MOFIIE8v02NKUL4LHhBOLUUbE-MtSMSr7otlg5aFhd8JMb3gRwOLIFWWZx7BCFdtf8HkRmD-qhHoNMV7-0XrgPx1c5RnhG2YAYiIobwAuKkmDsYIbzjxnpQ383FTtAqpQLPgO3l7DNzncvcn-U5rTjgXsHy93W5FHXXvgvq0Mz4cd34UkLGlnMNDiZiNnOPrmv3mtAbMiBJbfIcpPM4qEotc9995PIfKaTodnOwiIBFeKyF05ncUKYr1xywTqRvhXUZh5qwCo_3_gBm00]--></g></svg>