<?xml version="1.0" encoding="us-ascii" standalone="no"?><svg xmlns="http://www.w3.org/2000/svg" xmlns:xlink="http://www.w3.org/1999/xlink" contentStyleType="text/css" height="451px" preserveAspectRatio="none" style="width:540px;height:451px;background:#FFFFFF;" version="1.1" viewBox="0 0 540 451" width="540px" zoomAndPan="magnify"><defs/><g><text fill="#000000" font-family="sans-serif" font-size="14" font-weight="bold" lengthAdjust="spacing" textLength="166" x="185.5" y="27.9951">Pesquisa de M&#233;dicos</text><rect fill="#FFFFFF" height="152.7969" style="stroke:#181818;stroke-width:1.0;" width="10" x="263" y="199.9922"/><line style="stroke:#181818;stroke-width:0.5;stroke-dasharray:5.0,5.0;" x1="124" x2="124" y1="118.5938" y2="370.7891"/><line style="stroke:#181818;stroke-width:0.5;stroke-dasharray:5.0,5.0;" x1="268" x2="268" y1="118.5938" y2="370.7891"/><line style="stroke:#181818;stroke-width:0.5;stroke-dasharray:5.0,5.0;" x1="413" x2="413" y1="118.5938" y2="370.7891"/><text fill="#000000" font-family="sans-serif" font-size="14" lengthAdjust="spacing" textLength="32" x="105" y="115.292">User</text><ellipse cx="124" cy="50.7969" fill="#E2E2F0" rx="8" ry="8" style="stroke:#181818;stroke-width:0.5;"/><path d="M124,58.7969 L124,85.7969 M111,66.7969 L137,66.7969 M124,85.7969 L111,100.7969 M124,85.7969 L137,100.7969 " fill="none" style="stroke:#181818;stroke-width:0.5;"/><text fill="#000000" font-family="sans-serif" font-size="14" lengthAdjust="spacing" textLength="32" x="105" y="382.7842">User</text><ellipse cx="124" cy="394.5859" fill="#E2E2F0" rx="8" ry="8" style="stroke:#181818;stroke-width:0.5;"/><path d="M124,402.5859 L124,429.5859 M111,410.5859 L137,410.5859 M124,429.5859 L111,444.5859 M124,429.5859 L137,444.5859 " fill="none" style="stroke:#181818;stroke-width:0.5;"/><rect fill="#E2E2F0" height="30.2969" rx="2.5" ry="2.5" style="stroke:#181818;stroke-width:0.5;" width="100" x="218" y="87.2969"/><text fill="#000000" font-family="sans-serif" font-size="14" lengthAdjust="spacing" textLength="86" x="225" y="107.292">User Service</text><rect fill="#E2E2F0" height="30.2969" rx="2.5" ry="2.5" style="stroke:#181818;stroke-width:0.5;" width="100" x="218" y="369.7891"/><text fill="#000000" font-family="sans-serif" font-size="14" lengthAdjust="spacing" textLength="86" x="225" y="389.7842">User Service</text><rect fill="#E2E2F0" height="30.2969" rx="2.5" ry="2.5" style="stroke:#181818;stroke-width:0.5;" width="80" x="373" y="87.2969"/><text fill="#000000" font-family="sans-serif" font-size="14" lengthAdjust="spacing" textLength="66" x="380" y="107.292">Database</text><rect fill="#E2E2F0" height="30.2969" rx="2.5" ry="2.5" style="stroke:#181818;stroke-width:0.5;" width="80" x="373" y="369.7891"/><text fill="#000000" font-family="sans-serif" font-size="14" lengthAdjust="spacing" textLength="66" x="380" y="389.7842">Database</text><rect fill="#FFFFFF" height="152.7969" style="stroke:#181818;stroke-width:1.0;" width="10" x="263" y="199.9922"/><path d="M5,133.5938 L5,158.5938 L244,158.5938 L244,143.5938 L234,133.5938 L5,133.5938 " fill="#FEFFDD" style="stroke:#181818;stroke-width:0.5;"/><path d="M234,133.5938 L234,143.5938 L244,143.5938 L234,133.5938 " fill="#FEFFDD" style="stroke:#181818;stroke-width:0.5;"/><text fill="#000000" font-family="sans-serif" font-size="13" lengthAdjust="spacing" textLength="146" x="11" y="150.6606">O usu&#225;rio pode ser um</text><text fill="#000000" font-family="sans-serif" font-size="13" font-weight="bold" lengthAdjust="spacing" textLength="64" x="161" y="150.6606">paciente</text><text fill="#000000" font-family="sans-serif" font-size="13" lengthAdjust="spacing" textLength="4" x="225" y="150.6606">.</text><polygon fill="#181818" points="251,195.9922,261,199.9922,251,203.9922,255,199.9922" style="stroke:#181818;stroke-width:1.0;"/><line style="stroke:#181818;stroke-width:1.0;" x1="124" x2="257" y1="199.9922" y2="199.9922"/><text fill="#000000" font-family="sans-serif" font-size="13" lengthAdjust="spacing" textLength="120" x="131" y="179.7935">GET /users/doctors</text><text fill="#000000" font-family="sans-serif" font-size="13" lengthAdjust="spacing" textLength="78" x="131" y="194.9263">(Bearer JWT)</text><polygon fill="#181818" points="401,225.125,411,229.125,401,233.125,405,229.125" style="stroke:#181818;stroke-width:1.0;"/><line style="stroke:#181818;stroke-width:1.0;" x1="273" x2="407" y1="229.125" y2="229.125"/><text fill="#000000" font-family="sans-serif" font-size="13" lengthAdjust="spacing" textLength="116" x="280" y="224.0591">Busca os m&#233;dicos</text><path d="M293,242.125 L293,297.125 L533,297.125 L533,252.125 L523,242.125 L293,242.125 " fill="#FEFFDD" style="stroke:#181818;stroke-width:0.5;"/><path d="M523,242.125 L523,252.125 L533,252.125 L523,242.125 " fill="#FEFFDD" style="stroke:#181818;stroke-width:0.5;"/><text fill="#000000" font-family="sans-serif" font-size="13" lengthAdjust="spacing" textLength="219" x="299" y="259.1919">Esta consulta pode ser filtrada por</text><text fill="#000000" font-family="sans-serif" font-size="13" lengthAdjust="spacing" textLength="192" x="299" y="274.3247">especialidade, ID m&#233;dica, rua,</text><text fill="#000000" font-family="sans-serif" font-size="13" lengthAdjust="spacing" textLength="109" x="299" y="289.4575">estado, CEP, etc.</text><polygon fill="#181818" points="284,319.6563,274,323.6563,284,327.6563,280,323.6563" style="stroke:#181818;stroke-width:1.0;"/><line style="stroke:#181818;stroke-width:1.0;stroke-dasharray:2.0,2.0;" x1="278" x2="412" y1="323.6563" y2="323.6563"/><text fill="#000000" font-family="sans-serif" font-size="13" lengthAdjust="spacing" textLength="80" x="290" y="318.5903">Encontrados</text><polygon fill="#181818" points="135,348.7891,125,352.7891,135,356.7891,131,352.7891" style="stroke:#181818;stroke-width:1.0;"/><line style="stroke:#181818;stroke-width:1.0;stroke-dasharray:2.0,2.0;" x1="129" x2="267" y1="352.7891" y2="352.7891"/><text fill="#000000" font-family="sans-serif" font-size="13" lengthAdjust="spacing" textLength="46" x="141" y="347.7231">200 OK</text><!--SRC=[RL3BIWCn5DtdAmvTwJ2rnMKNBce7KP4MhBWHv9fS8J1Dnjoa_-FIx-YFcTXsxA2htCUvvv5eOyjOiNmaAmJ3UDXz6QkzA4Kw-e3Hat0OWGGf5wgZ4Ass7RcuN-6HmzPgxY6liXyCeGkAz4QoXvb3evJpaU6tcUQ7VPcVjFiCrgFpsKpXJnjKLKVQiejSLHUAdK6vKwhSO7mra9tXfbbZKaOoCRvaa1TtDcSA6Nptl3ulmUoMil30xcbJI8ycPvWdqGGlsFH_y-kxpz9896Zl9BMvwEs_spO6CcKI54l7sb9h3HckSRiuK5ADaAZE-qZ6rxXkLZKuwjEmHo6C_oHkNDOjAjdQCCO1EiFbT8hblJByV_Xl]--></g></svg>