<?xml version="1.0" encoding="us-ascii" standalone="no"?><svg xmlns="http://www.w3.org/2000/svg" xmlns:xlink="http://www.w3.org/1999/xlink" contentStyleType="text/css" height="485px" preserveAspectRatio="none" style="width:468px;height:485px;background:#FFFFFF;" version="1.1" viewBox="0 0 468 485" width="468px" zoomAndPan="magnify"><defs/><g><text fill="#000000" font-family="sans-serif" font-size="14" font-weight="bold" lengthAdjust="spacing" textLength="164" x="151" y="27.9951">Update an User Flow</text><rect fill="#FFFFFF" height="171.6641" style="stroke:#181818;stroke-width:1.0;" width="10" x="235" y="215.125"/><line style="stroke:#181818;stroke-width:0.5;stroke-dasharray:5.0,5.0;" x1="123" x2="123" y1="118.5938" y2="404.7891"/><line style="stroke:#181818;stroke-width:0.5;stroke-dasharray:5.0,5.0;" x1="240" x2="240" y1="118.5938" y2="404.7891"/><line style="stroke:#181818;stroke-width:0.5;stroke-dasharray:5.0,5.0;" x1="422" x2="422" y1="118.5938" y2="404.7891"/><text fill="#000000" font-family="sans-serif" font-size="14" lengthAdjust="spacing" textLength="32" x="104" y="115.292">User</text><ellipse cx="123" cy="50.7969" fill="#E2E2F0" rx="8" ry="8" style="stroke:#181818;stroke-width:0.5;"/><path d="M123,58.7969 L123,85.7969 M110,66.7969 L136,66.7969 M123,85.7969 L110,100.7969 M123,85.7969 L136,100.7969 " fill="none" style="stroke:#181818;stroke-width:0.5;"/><text fill="#000000" font-family="sans-serif" font-size="14" lengthAdjust="spacing" textLength="32" x="104" y="416.7842">User</text><ellipse cx="123" cy="428.5859" fill="#E2E2F0" rx="8" ry="8" style="stroke:#181818;stroke-width:0.5;"/><path d="M123,436.5859 L123,463.5859 M110,444.5859 L136,444.5859 M123,463.5859 L110,478.5859 M123,463.5859 L136,478.5859 " fill="none" style="stroke:#181818;stroke-width:0.5;"/><rect fill="#E2E2F0" height="30.2969" rx="2.5" ry="2.5" style="stroke:#181818;stroke-width:0.5;" width="100" x="190" y="87.2969"/><text fill="#000000" font-family="sans-serif" font-size="14" lengthAdjust="spacing" textLength="86" x="197" y="107.292">User Service</text><rect fill="#E2E2F0" height="30.2969" rx="2.5" ry="2.5" style="stroke:#181818;stroke-width:0.5;" width="100" x="190" y="403.7891"/><text fill="#000000" font-family="sans-serif" font-size="14" lengthAdjust="spacing" textLength="86" x="197" y="423.7842">User Service</text><rect fill="#E2E2F0" height="30.2969" rx="2.5" ry="2.5" style="stroke:#181818;stroke-width:0.5;" width="80" x="382" y="87.2969"/><text fill="#000000" font-family="sans-serif" font-size="14" lengthAdjust="spacing" textLength="66" x="389" y="107.292">Database</text><rect fill="#E2E2F0" height="30.2969" rx="2.5" ry="2.5" style="stroke:#181818;stroke-width:0.5;" width="80" x="382" y="403.7891"/><text fill="#000000" font-family="sans-serif" font-size="14" lengthAdjust="spacing" textLength="66" x="389" y="423.7842">Database</text><rect fill="#FFFFFF" height="171.6641" style="stroke:#181818;stroke-width:1.0;" width="10" x="235" y="215.125"/><path d="M5,133.5938 L5,173.5938 L242,173.5938 L242,143.5938 L232,133.5938 L5,133.5938 " fill="#FEFFDD" style="stroke:#181818;stroke-width:0.5;"/><path d="M232,133.5938 L232,143.5938 L242,143.5938 L232,133.5938 " fill="#FEFFDD" style="stroke:#181818;stroke-width:0.5;"/><text fill="#000000" font-family="sans-serif" font-size="13" lengthAdjust="spacing" textLength="216" x="11" y="150.6606">In this example, the user could be</text><text fill="#000000" font-family="sans-serif" font-size="13" lengthAdjust="spacing" textLength="8" x="11" y="165.7935">a</text><text fill="#000000" font-family="sans-serif" font-size="13" font-weight="bold" lengthAdjust="spacing" textLength="48" x="23" y="165.7935">doctor</text><text fill="#000000" font-family="sans-serif" font-size="13" lengthAdjust="spacing" textLength="25" x="75" y="165.7935">or a</text><text fill="#000000" font-family="sans-serif" font-size="13" font-weight="bold" lengthAdjust="spacing" textLength="53" x="104" y="165.7935">patient</text><text fill="#000000" font-family="sans-serif" font-size="13" lengthAdjust="spacing" textLength="4" x="157" y="165.7935">.</text><polygon fill="#181818" points="223,211.125,233,215.125,223,219.125,227,215.125" style="stroke:#181818;stroke-width:1.0;"/><line style="stroke:#181818;stroke-width:1.0;" x1="123" x2="229" y1="215.125" y2="215.125"/><text fill="#000000" font-family="sans-serif" font-size="13" lengthAdjust="spacing" textLength="93" x="130" y="194.9263">PUT /users/me</text><text fill="#000000" font-family="sans-serif" font-size="13" lengthAdjust="spacing" textLength="78" x="130" y="210.0591">(Bearer JWT)</text><line style="stroke:#181818;stroke-width:1.0;" x1="245" x2="287" y1="244.2578" y2="244.2578"/><line style="stroke:#181818;stroke-width:1.0;" x1="287" x2="287" y1="244.2578" y2="257.2578"/><line style="stroke:#181818;stroke-width:1.0;" x1="246" x2="287" y1="257.2578" y2="257.2578"/><polygon fill="#181818" points="256,253.2578,246,257.2578,256,261.2578,252,257.2578" style="stroke:#181818;stroke-width:1.0;"/><text fill="#000000" font-family="sans-serif" font-size="13" lengthAdjust="spacing" textLength="143" x="252" y="239.1919">Get user based on JWT</text><line style="stroke:#181818;stroke-width:1.0;" x1="245" x2="287" y1="286.3906" y2="286.3906"/><line style="stroke:#181818;stroke-width:1.0;" x1="287" x2="287" y1="286.3906" y2="299.3906"/><line style="stroke:#181818;stroke-width:1.0;" x1="246" x2="287" y1="299.3906" y2="299.3906"/><polygon fill="#181818" points="256,295.3906,246,299.3906,256,303.3906,252,299.3906" style="stroke:#181818;stroke-width:1.0;"/><text fill="#000000" font-family="sans-serif" font-size="13" lengthAdjust="spacing" textLength="158" x="252" y="281.3247">Validate new information</text><polygon fill="#181818" points="410,324.5234,420,328.5234,410,332.5234,414,328.5234" style="stroke:#181818;stroke-width:1.0;"/><line style="stroke:#181818;stroke-width:1.0;" x1="245" x2="416" y1="328.5234" y2="328.5234"/><text fill="#000000" font-family="sans-serif" font-size="13" lengthAdjust="spacing" textLength="79" x="252" y="323.4575">Update user</text><polygon fill="#181818" points="256,353.6563,246,357.6563,256,361.6563,252,357.6563" style="stroke:#181818;stroke-width:1.0;"/><line style="stroke:#181818;stroke-width:1.0;stroke-dasharray:2.0,2.0;" x1="250" x2="421" y1="357.6563" y2="357.6563"/><text fill="#000000" font-family="sans-serif" font-size="13" lengthAdjust="spacing" textLength="55" x="262" y="352.5903">Updated</text><polygon fill="#181818" points="134,382.7891,124,386.7891,134,390.7891,130,386.7891" style="stroke:#181818;stroke-width:1.0;"/><line style="stroke:#181818;stroke-width:1.0;stroke-dasharray:2.0,2.0;" x1="128" x2="239" y1="386.7891" y2="386.7891"/><text fill="#000000" font-family="sans-serif" font-size="13" lengthAdjust="spacing" textLength="46" x="140" y="381.7231">200 OK</text><!--SRC=[XL6nJiCm5Dpz5QTEO55QCMPWG0W4323Hm8A4NkE7i9GyHxQRyldOIOC8GUhcUxvtlZj76sj6sHgA31AKWJrkQhTNYgheF1PviW05xD91jUIZhMnB4eShFBFlRCK_bFSm3ARKQugqfJ3Gp04e9IuzwxeaqwlV2UAd3U0lQjgQpnBY_WQLszK6MrO4hOtBrhH6yfTnIz6oHAtF5Oj15bMgNrjUJZmLU2etMELHM3Ny9YTNJ3xnxbytfpcmxN8FanY_mLplbkDWCESnS9AbZkoyK6txleNtiFBXV9C2E9cjZJqLumVr9OrJB6VA0yty4JhG2boirtXyK8R_J_eD]--></g></svg>