<?xml version="1.0" encoding="us-ascii" standalone="no"?><svg xmlns="http://www.w3.org/2000/svg" xmlns:xlink="http://www.w3.org/1999/xlink" contentStyleType="text/css" height="485px" preserveAspectRatio="none" style="width:447px;height:485px;background:#FFFFFF;" version="1.1" viewBox="0 0 447 485" width="447px" zoomAndPan="magnify"><defs/><g><text fill="#000000" font-family="sans-serif" font-size="14" font-weight="bold" lengthAdjust="spacing" textLength="180" x="132.5" y="27.9951">Atualiza&#231;&#227;o de Usu&#225;rio</text><rect fill="#FFFFFF" height="171.6641" style="stroke:#181818;stroke-width:1.0;" width="10" x="229" y="215.125"/><line style="stroke:#181818;stroke-width:0.5;stroke-dasharray:5.0,5.0;" x1="117" x2="117" y1="118.5938" y2="404.7891"/><line style="stroke:#181818;stroke-width:0.5;stroke-dasharray:5.0,5.0;" x1="234" x2="234" y1="118.5938" y2="404.7891"/><line style="stroke:#181818;stroke-width:0.5;stroke-dasharray:5.0,5.0;" x1="401" x2="401" y1="118.5938" y2="404.7891"/><text fill="#000000" font-family="sans-serif" font-size="14" lengthAdjust="spacing" textLength="32" x="98" y="115.292">User</text><ellipse cx="117" cy="50.7969" fill="#E2E2F0" rx="8" ry="8" style="stroke:#181818;stroke-width:0.5;"/><path d="M117,58.7969 L117,85.7969 M104,66.7969 L130,66.7969 M117,85.7969 L104,100.7969 M117,85.7969 L130,100.7969 " fill="none" style="stroke:#181818;stroke-width:0.5;"/><text fill="#000000" font-family="sans-serif" font-size="14" lengthAdjust="spacing" textLength="32" x="98" y="416.7842">User</text><ellipse cx="117" cy="428.5859" fill="#E2E2F0" rx="8" ry="8" style="stroke:#181818;stroke-width:0.5;"/><path d="M117,436.5859 L117,463.5859 M104,444.5859 L130,444.5859 M117,463.5859 L104,478.5859 M117,463.5859 L130,478.5859 " fill="none" style="stroke:#181818;stroke-width:0.5;"/><rect fill="#E2E2F0" height="30.2969" rx="2.5" ry="2.5" style="stroke:#181818;stroke-width:0.5;" width="100" x="184" y="87.2969"/><text fill="#000000" font-family="sans-serif" font-size="14" lengthAdjust="spacing" textLength="86" x="191" y="107.292">User Service</text><rect fill="#E2E2F0" height="30.2969" rx="2.5" ry="2.5" style="stroke:#181818;stroke-width:0.5;" width="100" x="184" y="403.7891"/><text fill="#000000" font-family="sans-serif" font-size="14" lengthAdjust="spacing" textLength="86" x="191" y="423.7842">User Service</text><rect fill="#E2E2F0" height="30.2969" rx="2.5" ry="2.5" style="stroke:#181818;stroke-width:0.5;" width="80" x="361" y="87.2969"/><text fill="#000000" font-family="sans-serif" font-size="14" lengthAdjust="spacing" textLength="66" x="368" y="107.292">Database</text><rect fill="#E2E2F0" height="30.2969" rx="2.5" ry="2.5" style="stroke:#181818;stroke-width:0.5;" width="80" x="361" y="403.7891"/><text fill="#000000" font-family="sans-serif" font-size="14" lengthAdjust="spacing" textLength="66" x="368" y="423.7842">Database</text><rect fill="#FFFFFF" height="171.6641" style="stroke:#181818;stroke-width:1.0;" width="10" x="229" y="215.125"/><path d="M5,133.5938 L5,173.5938 L230,173.5938 L230,143.5938 L220,133.5938 L5,133.5938 " fill="#FEFFDD" style="stroke:#181818;stroke-width:0.5;"/><path d="M220,133.5938 L220,143.5938 L230,143.5938 L220,133.5938 " fill="#FEFFDD" style="stroke:#181818;stroke-width:0.5;"/><text fill="#000000" font-family="sans-serif" font-size="13" lengthAdjust="spacing" textLength="146" x="11" y="150.6606">O usu&#225;rio pode ser um</text><text fill="#000000" font-family="sans-serif" font-size="13" font-weight="bold" lengthAdjust="spacing" textLength="54" x="161" y="150.6606">m&#233;dico</text><text fill="#000000" font-family="sans-serif" font-size="13" lengthAdjust="spacing" textLength="41" x="11" y="165.7935">ou um</text><text fill="#000000" font-family="sans-serif" font-size="13" font-weight="bold" lengthAdjust="spacing" textLength="64" x="56" y="165.7935">paciente</text><text fill="#000000" font-family="sans-serif" font-size="13" lengthAdjust="spacing" textLength="4" x="120" y="165.7935">.</text><polygon fill="#181818" points="217,211.125,227,215.125,217,219.125,221,215.125" style="stroke:#181818;stroke-width:1.0;"/><line style="stroke:#181818;stroke-width:1.0;" x1="117" x2="223" y1="215.125" y2="215.125"/><text fill="#000000" font-family="sans-serif" font-size="13" lengthAdjust="spacing" textLength="93" x="124" y="194.9263">PUT /users/me</text><text fill="#000000" font-family="sans-serif" font-size="13" lengthAdjust="spacing" textLength="78" x="124" y="210.0591">(Bearer JWT)</text><line style="stroke:#181818;stroke-width:1.0;" x1="239" x2="281" y1="244.2578" y2="244.2578"/><line style="stroke:#181818;stroke-width:1.0;" x1="281" x2="281" y1="244.2578" y2="257.2578"/><line style="stroke:#181818;stroke-width:1.0;" x1="240" x2="281" y1="257.2578" y2="257.2578"/><polygon fill="#181818" points="250,253.2578,240,257.2578,250,261.2578,246,257.2578" style="stroke:#181818;stroke-width:1.0;"/><text fill="#000000" font-family="sans-serif" font-size="13" lengthAdjust="spacing" textLength="143" x="246" y="239.1919">Obt&#233;m o usu&#225;rio atual</text><line style="stroke:#181818;stroke-width:1.0;" x1="239" x2="281" y1="286.3906" y2="286.3906"/><line style="stroke:#181818;stroke-width:1.0;" x1="281" x2="281" y1="286.3906" y2="299.3906"/><line style="stroke:#181818;stroke-width:1.0;" x1="240" x2="281" y1="299.3906" y2="299.3906"/><polygon fill="#181818" points="250,295.3906,240,299.3906,250,303.3906,246,299.3906" style="stroke:#181818;stroke-width:1.0;"/><text fill="#000000" font-family="sans-serif" font-size="13" lengthAdjust="spacing" textLength="129" x="246" y="281.3247">Valida as altera&#231;&#245;es</text><polygon fill="#181818" points="389,324.5234,399,328.5234,389,332.5234,393,328.5234" style="stroke:#181818;stroke-width:1.0;"/><line style="stroke:#181818;stroke-width:1.0;" x1="239" x2="395" y1="328.5234" y2="328.5234"/><text fill="#000000" font-family="sans-serif" font-size="13" lengthAdjust="spacing" textLength="114" x="246" y="323.4575">Atualiza o usu&#225;rio</text><polygon fill="#181818" points="250,353.6563,240,357.6563,250,361.6563,246,357.6563" style="stroke:#181818;stroke-width:1.0;"/><line style="stroke:#181818;stroke-width:1.0;stroke-dasharray:2.0,2.0;" x1="244" x2="400" y1="357.6563" y2="357.6563"/><text fill="#000000" font-family="sans-serif" font-size="13" lengthAdjust="spacing" textLength="67" x="256" y="352.5903">Atualizado</text><polygon fill="#181818" points="128,382.7891,118,386.7891,128,390.7891,124,386.7891" style="stroke:#181818;stroke-width:1.0;"/><line style="stroke:#181818;stroke-width:1.0;stroke-dasharray:2.0,2.0;" x1="122" x2="233" y1="386.7891" y2="386.7891"/><text fill="#000000" font-family="sans-serif" font-size="13" lengthAdjust="spacing" textLength="46" x="134" y="381.7231">200 OK</text><!--SRC=[XP6nJiGm38PtFuLr4qGwxiJO0Gd414EHkCA2X7oDXqXjKoLE1zu6CQ1x09wWBqP2hyUL8jsKsFxp-RSZHYh6QmbKcJVgF_iFYvgnyA5_TyO2K2dMuQBmx1P87aEyG4jEJ6bQQcGeuIExpfHyaBpw8J6LtfBGblmWq_i0eB72QBk8-Q7dyHZQOskZcSGFDIfLzpjjIgiKs31aMYeDDy9ANG0t6XC9855mUJKnak53iS5LIlbLpI_DsGsJYxgxvyrvcj9q55rCl1y7Srw-bNvNe_rrIscD9ruznKLhIlDJ9UpIoh_OpnwDoyaEVtFK2COgBcVyKQxj7-PUcU7bUetvFMZ-V-Xl]--></g></svg>