<?xml version="1.0" encoding="us-ascii" standalone="no"?><svg xmlns="http://www.w3.org/2000/svg" xmlns:xlink="http://www.w3.org/1999/xlink" contentStyleType="text/css" height="1598px" preserveAspectRatio="none" style="width:638px;height:1598px;background:#FFFFFF;" version="1.1" viewBox="0 0 638 1598" width="638px" zoomAndPan="magnify"><defs/><g><text fill="#000000" font-family="sans-serif" font-size="14" font-weight="bold" lengthAdjust="spacing" textLength="110" x="260" y="27.9951">User Handling</text><rect fill="#FFFFFF" height="179.7969" style="stroke:#181818;stroke-width:1.0;" width="10" x="334" y="243.125"/><rect fill="#FFFFFF" height="129.5313" style="stroke:#181818;stroke-width:1.0;" width="10" x="334" y="560.5859"/><rect fill="#FFFFFF" height="171.6641" style="stroke:#181818;stroke-width:1.0;" width="10" x="334" y="827.7813"/><rect fill="#FFFFFF" height="137.6641" style="stroke:#181818;stroke-width:1.0;" width="10" x="334" y="1137.1094"/><rect fill="#FFFFFF" height="87.3984" style="stroke:#181818;stroke-width:1.0;" width="10" x="334" y="1412.4375"/><line style="stroke:#181818;stroke-width:0.5;stroke-dasharray:5.0,5.0;" x1="123" x2="123" y1="118.5938" y2="1517.8359"/><line style="stroke:#181818;stroke-width:0.5;stroke-dasharray:5.0,5.0;" x1="339" x2="339" y1="118.5938" y2="1517.8359"/><line style="stroke:#181818;stroke-width:0.5;stroke-dasharray:5.0,5.0;" x1="521" x2="521" y1="118.5938" y2="1517.8359"/><text fill="#000000" font-family="sans-serif" font-size="14" lengthAdjust="spacing" textLength="32" x="104" y="115.292">User</text><ellipse cx="123" cy="50.7969" fill="#E2E2F0" rx="8" ry="8" style="stroke:#181818;stroke-width:0.5;"/><path d="M123,58.7969 L123,85.7969 M110,66.7969 L136,66.7969 M123,85.7969 L110,100.7969 M123,85.7969 L136,100.7969 " fill="none" style="stroke:#181818;stroke-width:0.5;"/><text fill="#000000" font-family="sans-serif" font-size="14" lengthAdjust="spacing" textLength="32" x="104" y="1529.8311">User</text><ellipse cx="123" cy="1541.6328" fill="#E2E2F0" rx="8" ry="8" style="stroke:#181818;stroke-width:0.5;"/><path d="M123,1549.6328 L123,1576.6328 M110,1557.6328 L136,1557.6328 M123,1576.6328 L110,1591.6328 M123,1576.6328 L136,1591.6328 " fill="none" style="stroke:#181818;stroke-width:0.5;"/><rect fill="#E2E2F0" height="30.2969" rx="2.5" ry="2.5" style="stroke:#181818;stroke-width:0.5;" width="100" x="289" y="87.2969"/><text fill="#000000" font-family="sans-serif" font-size="14" lengthAdjust="spacing" textLength="86" x="296" y="107.292">User Service</text><rect fill="#E2E2F0" height="30.2969" rx="2.5" ry="2.5" style="stroke:#181818;stroke-width:0.5;" width="100" x="289" y="1516.8359"/><text fill="#000000" font-family="sans-serif" font-size="14" lengthAdjust="spacing" textLength="86" x="296" y="1536.8311">User Service</text><rect fill="#E2E2F0" height="30.2969" rx="2.5" ry="2.5" style="stroke:#181818;stroke-width:0.5;" width="80" x="481" y="87.2969"/><text fill="#000000" font-family="sans-serif" font-size="14" lengthAdjust="spacing" textLength="66" x="488" y="107.292">Database</text><rect fill="#E2E2F0" height="30.2969" rx="2.5" ry="2.5" style="stroke:#181818;stroke-width:0.5;" width="80" x="481" y="1516.8359"/><text fill="#000000" font-family="sans-serif" font-size="14" lengthAdjust="spacing" textLength="66" x="488" y="1536.8311">Database</text><rect fill="#FFFFFF" height="179.7969" style="stroke:#181818;stroke-width:1.0;" width="10" x="334" y="243.125"/><rect fill="#FFFFFF" height="129.5313" style="stroke:#181818;stroke-width:1.0;" width="10" x="334" y="560.5859"/><rect fill="#FFFFFF" height="171.6641" style="stroke:#181818;stroke-width:1.0;" width="10" x="334" y="827.7813"/><rect fill="#FFFFFF" height="137.6641" style="stroke:#181818;stroke-width:1.0;" width="10" x="334" y="1137.1094"/><rect fill="#FFFFFF" height="87.3984" style="stroke:#181818;stroke-width:1.0;" width="10" x="334" y="1412.4375"/><rect fill="#EEEEEE" height="3" style="stroke:#EEEEEE;stroke-width:1.0;" width="631" x="0" y="149.1602"/><line style="stroke:#000000;stroke-width:1.0;" x1="0" x2="631" y1="149.1602" y2="149.1602"/><line style="stroke:#000000;stroke-width:1.0;" x1="0" x2="631" y1="152.1602" y2="152.1602"/><rect fill="#EEEEEE" height="23.1328" style="stroke:#000000;stroke-width:2.0;" width="142" x="244.5" y="138.5938"/><text fill="#000000" font-family="sans-serif" font-size="13" font-weight="bold" lengthAdjust="spacing" textLength="123" x="250.5" y="154.6606">Creating an user</text><path d="M5,176.7266 L5,216.7266 L242,216.7266 L242,186.7266 L232,176.7266 L5,176.7266 " fill="#FEFFDD" style="stroke:#181818;stroke-width:0.5;"/><path d="M232,176.7266 L232,186.7266 L242,186.7266 L232,176.7266 " fill="#FEFFDD" style="stroke:#181818;stroke-width:0.5;"/><text fill="#000000" font-family="sans-serif" font-size="13" lengthAdjust="spacing" textLength="216" x="11" y="193.7935">In this example, the user could be</text><text fill="#000000" font-family="sans-serif" font-size="13" lengthAdjust="spacing" textLength="8" x="11" y="208.9263">a</text><text fill="#000000" font-family="sans-serif" font-size="13" font-weight="bold" lengthAdjust="spacing" textLength="48" x="23" y="208.9263">doctor</text><text fill="#000000" font-family="sans-serif" font-size="13" lengthAdjust="spacing" textLength="25" x="75" y="208.9263">or a</text><text fill="#000000" font-family="sans-serif" font-size="13" font-weight="bold" lengthAdjust="spacing" textLength="53" x="104" y="208.9263">patient</text><text fill="#000000" font-family="sans-serif" font-size="13" lengthAdjust="spacing" textLength="4" x="157" y="208.9263">.</text><polygon fill="#181818" points="322,239.125,332,243.125,322,247.125,326,243.125" style="stroke:#181818;stroke-width:1.0;"/><line style="stroke:#181818;stroke-width:1.0;" x1="123" x2="328" y1="243.125" y2="243.125"/><text fill="#000000" font-family="sans-serif" font-size="13" lengthAdjust="spacing" textLength="77" x="130" y="238.0591">POST /users</text><path d="M258,256.125 L258,296.125 L420,296.125 L420,266.125 L410,256.125 L258,256.125 " fill="#FEFFDD" style="stroke:#181818;stroke-width:0.5;"/><path d="M410,256.125 L410,266.125 L420,266.125 L410,256.125 " fill="#FEFFDD" style="stroke:#181818;stroke-width:0.5;"/><text fill="#000000" font-family="sans-serif" font-size="13" lengthAdjust="spacing" textLength="98" x="264" y="273.1919">This route does</text><text fill="#000000" font-family="sans-serif" font-size="13" font-weight="bold" lengthAdjust="spacing" textLength="24" x="366" y="273.1919">not</text><text fill="#000000" font-family="sans-serif" font-size="13" lengthAdjust="spacing" textLength="141" x="264" y="288.3247">require authentication</text><line style="stroke:#181818;stroke-width:1.0;" x1="344" x2="386" y1="322.5234" y2="322.5234"/><line style="stroke:#181818;stroke-width:1.0;" x1="386" x2="386" y1="322.5234" y2="335.5234"/><line style="stroke:#181818;stroke-width:1.0;" x1="345" x2="386" y1="335.5234" y2="335.5234"/><polygon fill="#181818" points="355,331.5234,345,335.5234,355,339.5234,351,335.5234" style="stroke:#181818;stroke-width:1.0;"/><text fill="#000000" font-family="sans-serif" font-size="13" lengthAdjust="spacing" textLength="84" x="351" y="317.4575">Validate user</text><polygon fill="#181818" points="509,360.6563,519,364.6563,509,368.6563,513,364.6563" style="stroke:#181818;stroke-width:1.0;"/><line style="stroke:#181818;stroke-width:1.0;" x1="344" x2="515" y1="364.6563" y2="364.6563"/><text fill="#000000" font-family="sans-serif" font-size="13" lengthAdjust="spacing" textLength="75" x="351" y="359.5903">Create user</text><polygon fill="#181818" points="355,389.7891,345,393.7891,355,397.7891,351,393.7891" style="stroke:#181818;stroke-width:1.0;"/><line style="stroke:#181818;stroke-width:1.0;stroke-dasharray:2.0,2.0;" x1="349" x2="520" y1="393.7891" y2="393.7891"/><text fill="#000000" font-family="sans-serif" font-size="13" lengthAdjust="spacing" textLength="51" x="361" y="388.7231">Created</text><polygon fill="#181818" points="134,418.9219,124,422.9219,134,426.9219,130,422.9219" style="stroke:#181818;stroke-width:1.0;"/><line style="stroke:#181818;stroke-width:1.0;stroke-dasharray:2.0,2.0;" x1="128" x2="338" y1="422.9219" y2="422.9219"/><text fill="#000000" font-family="sans-serif" font-size="13" lengthAdjust="spacing" textLength="79" x="140" y="417.856">201 Created</text><rect fill="#EEEEEE" height="3" style="stroke:#EEEEEE;stroke-width:1.0;" width="631" x="0" y="451.4883"/><line style="stroke:#000000;stroke-width:1.0;" x1="0" x2="631" y1="451.4883" y2="451.4883"/><line style="stroke:#000000;stroke-width:1.0;" x1="0" x2="631" y1="454.4883" y2="454.4883"/><rect fill="#EEEEEE" height="23.1328" style="stroke:#000000;stroke-width:2.0;" width="134" x="248.5" y="440.9219"/><text fill="#000000" font-family="sans-serif" font-size="13" font-weight="bold" lengthAdjust="spacing" textLength="115" x="254.5" y="456.9888">Getting an user</text><path d="M5,479.0547 L5,519.0547 L242,519.0547 L242,489.0547 L232,479.0547 L5,479.0547 " fill="#FEFFDD" style="stroke:#181818;stroke-width:0.5;"/><path d="M232,479.0547 L232,489.0547 L242,489.0547 L232,479.0547 " fill="#FEFFDD" style="stroke:#181818;stroke-width:0.5;"/><text fill="#000000" font-family="sans-serif" font-size="13" lengthAdjust="spacing" textLength="216" x="11" y="496.1216">In this example, the user could be</text><text fill="#000000" font-family="sans-serif" font-size="13" lengthAdjust="spacing" textLength="8" x="11" y="511.2544">a</text><text fill="#000000" font-family="sans-serif" font-size="13" font-weight="bold" lengthAdjust="spacing" textLength="48" x="23" y="511.2544">doctor</text><text fill="#000000" font-family="sans-serif" font-size="13" lengthAdjust="spacing" textLength="25" x="75" y="511.2544">or a</text><text fill="#000000" font-family="sans-serif" font-size="13" font-weight="bold" lengthAdjust="spacing" textLength="53" x="104" y="511.2544">patient</text><text fill="#000000" font-family="sans-serif" font-size="13" lengthAdjust="spacing" textLength="4" x="157" y="511.2544">.</text><polygon fill="#181818" points="322,556.5859,332,560.5859,322,564.5859,326,560.5859" style="stroke:#181818;stroke-width:1.0;"/><line style="stroke:#181818;stroke-width:1.0;" x1="123" x2="328" y1="560.5859" y2="560.5859"/><text fill="#000000" font-family="sans-serif" font-size="13" lengthAdjust="spacing" textLength="93" x="130" y="540.3872">GET /users/me</text><text fill="#000000" font-family="sans-serif" font-size="13" lengthAdjust="spacing" textLength="78" x="130" y="555.52">(Bearer JWT)</text><line style="stroke:#181818;stroke-width:1.0;" x1="344" x2="386" y1="589.7188" y2="589.7188"/><line style="stroke:#181818;stroke-width:1.0;" x1="386" x2="386" y1="589.7188" y2="602.7188"/><line style="stroke:#181818;stroke-width:1.0;" x1="345" x2="386" y1="602.7188" y2="602.7188"/><polygon fill="#181818" points="355,598.7188,345,602.7188,355,606.7188,351,602.7188" style="stroke:#181818;stroke-width:1.0;"/><text fill="#000000" font-family="sans-serif" font-size="13" lengthAdjust="spacing" textLength="143" x="351" y="584.6528">Get user based on JWT</text><polygon fill="#181818" points="509,627.8516,519,631.8516,509,635.8516,513,631.8516" style="stroke:#181818;stroke-width:1.0;"/><line style="stroke:#181818;stroke-width:1.0;" x1="344" x2="515" y1="631.8516" y2="631.8516"/><text fill="#000000" font-family="sans-serif" font-size="13" lengthAdjust="spacing" textLength="55" x="351" y="626.7856">Get user</text><polygon fill="#181818" points="355,656.9844,345,660.9844,355,664.9844,351,660.9844" style="stroke:#181818;stroke-width:1.0;"/><line style="stroke:#181818;stroke-width:1.0;stroke-dasharray:2.0,2.0;" x1="349" x2="520" y1="660.9844" y2="660.9844"/><text fill="#000000" font-family="sans-serif" font-size="13" lengthAdjust="spacing" textLength="39" x="361" y="655.9185">Found</text><polygon fill="#181818" points="134,686.1172,124,690.1172,134,694.1172,130,690.1172" style="stroke:#181818;stroke-width:1.0;"/><line style="stroke:#181818;stroke-width:1.0;stroke-dasharray:2.0,2.0;" x1="128" x2="338" y1="690.1172" y2="690.1172"/><text fill="#000000" font-family="sans-serif" font-size="13" lengthAdjust="spacing" textLength="46" x="140" y="685.0513">200 OK</text><rect fill="#EEEEEE" height="3" style="stroke:#EEEEEE;stroke-width:1.0;" width="631" x="0" y="718.6836"/><line style="stroke:#000000;stroke-width:1.0;" x1="0" x2="631" y1="718.6836" y2="718.6836"/><line style="stroke:#000000;stroke-width:1.0;" x1="0" x2="631" y1="721.6836" y2="721.6836"/><rect fill="#EEEEEE" height="23.1328" style="stroke:#000000;stroke-width:2.0;" width="147" x="242" y="708.1172"/><text fill="#000000" font-family="sans-serif" font-size="13" font-weight="bold" lengthAdjust="spacing" textLength="128" x="248" y="724.1841">Updating an user</text><path d="M5,746.25 L5,786.25 L242,786.25 L242,756.25 L232,746.25 L5,746.25 " fill="#FEFFDD" style="stroke:#181818;stroke-width:0.5;"/><path d="M232,746.25 L232,756.25 L242,756.25 L232,746.25 " fill="#FEFFDD" style="stroke:#181818;stroke-width:0.5;"/><text fill="#000000" font-family="sans-serif" font-size="13" lengthAdjust="spacing" textLength="216" x="11" y="763.3169">In this example, the user could be</text><text fill="#000000" font-family="sans-serif" font-size="13" lengthAdjust="spacing" textLength="8" x="11" y="778.4497">a</text><text fill="#000000" font-family="sans-serif" font-size="13" font-weight="bold" lengthAdjust="spacing" textLength="48" x="23" y="778.4497">doctor</text><text fill="#000000" font-family="sans-serif" font-size="13" lengthAdjust="spacing" textLength="25" x="75" y="778.4497">or a</text><text fill="#000000" font-family="sans-serif" font-size="13" font-weight="bold" lengthAdjust="spacing" textLength="53" x="104" y="778.4497">patient</text><text fill="#000000" font-family="sans-serif" font-size="13" lengthAdjust="spacing" textLength="4" x="157" y="778.4497">.</text><polygon fill="#181818" points="322,823.7813,332,827.7813,322,831.7813,326,827.7813" style="stroke:#181818;stroke-width:1.0;"/><line style="stroke:#181818;stroke-width:1.0;" x1="123" x2="328" y1="827.7813" y2="827.7813"/><text fill="#000000" font-family="sans-serif" font-size="13" lengthAdjust="spacing" textLength="93" x="130" y="807.5825">PUT /users/me</text><text fill="#000000" font-family="sans-serif" font-size="13" lengthAdjust="spacing" textLength="78" x="130" y="822.7153">(Bearer JWT)</text><line style="stroke:#181818;stroke-width:1.0;" x1="344" x2="386" y1="856.9141" y2="856.9141"/><line style="stroke:#181818;stroke-width:1.0;" x1="386" x2="386" y1="856.9141" y2="869.9141"/><line style="stroke:#181818;stroke-width:1.0;" x1="345" x2="386" y1="869.9141" y2="869.9141"/><polygon fill="#181818" points="355,865.9141,345,869.9141,355,873.9141,351,869.9141" style="stroke:#181818;stroke-width:1.0;"/><text fill="#000000" font-family="sans-serif" font-size="13" lengthAdjust="spacing" textLength="143" x="351" y="851.8481">Get user based on JWT</text><line style="stroke:#181818;stroke-width:1.0;" x1="344" x2="386" y1="899.0469" y2="899.0469"/><line style="stroke:#181818;stroke-width:1.0;" x1="386" x2="386" y1="899.0469" y2="912.0469"/><line style="stroke:#181818;stroke-width:1.0;" x1="345" x2="386" y1="912.0469" y2="912.0469"/><polygon fill="#181818" points="355,908.0469,345,912.0469,355,916.0469,351,912.0469" style="stroke:#181818;stroke-width:1.0;"/><text fill="#000000" font-family="sans-serif" font-size="13" lengthAdjust="spacing" textLength="158" x="351" y="893.981">Validate new information</text><polygon fill="#181818" points="509,937.1797,519,941.1797,509,945.1797,513,941.1797" style="stroke:#181818;stroke-width:1.0;"/><line style="stroke:#181818;stroke-width:1.0;" x1="344" x2="515" y1="941.1797" y2="941.1797"/><text fill="#000000" font-family="sans-serif" font-size="13" lengthAdjust="spacing" textLength="79" x="351" y="936.1138">Update user</text><polygon fill="#181818" points="355,966.3125,345,970.3125,355,974.3125,351,970.3125" style="stroke:#181818;stroke-width:1.0;"/><line style="stroke:#181818;stroke-width:1.0;stroke-dasharray:2.0,2.0;" x1="349" x2="520" y1="970.3125" y2="970.3125"/><text fill="#000000" font-family="sans-serif" font-size="13" lengthAdjust="spacing" textLength="55" x="361" y="965.2466">Updated</text><polygon fill="#181818" points="134,995.4453,124,999.4453,134,1003.4453,130,999.4453" style="stroke:#181818;stroke-width:1.0;"/><line style="stroke:#181818;stroke-width:1.0;stroke-dasharray:2.0,2.0;" x1="128" x2="338" y1="999.4453" y2="999.4453"/><text fill="#000000" font-family="sans-serif" font-size="13" lengthAdjust="spacing" textLength="46" x="140" y="994.3794">200 OK</text><rect fill="#EEEEEE" height="3" style="stroke:#EEEEEE;stroke-width:1.0;" width="631" x="0" y="1028.0117"/><line style="stroke:#000000;stroke-width:1.0;" x1="0" x2="631" y1="1028.0117" y2="1028.0117"/><line style="stroke:#000000;stroke-width:1.0;" x1="0" x2="631" y1="1031.0117" y2="1031.0117"/><rect fill="#EEEEEE" height="23.1328" style="stroke:#000000;stroke-width:2.0;" width="164" x="233.5" y="1017.4453"/><text fill="#000000" font-family="sans-serif" font-size="13" font-weight="bold" lengthAdjust="spacing" textLength="145" x="239.5" y="1033.5122">Getting the doctors</text><path d="M5,1055.5781 L5,1095.5781 L242,1095.5781 L242,1065.5781 L232,1055.5781 L5,1055.5781 " fill="#FEFFDD" style="stroke:#181818;stroke-width:0.5;"/><path d="M232,1055.5781 L232,1065.5781 L242,1065.5781 L232,1055.5781 " fill="#FEFFDD" style="stroke:#181818;stroke-width:0.5;"/><text fill="#000000" font-family="sans-serif" font-size="13" lengthAdjust="spacing" textLength="216" x="11" y="1072.645">In this example, the user could be</text><text fill="#000000" font-family="sans-serif" font-size="13" lengthAdjust="spacing" textLength="38" x="11" y="1087.7778">only a</text><text fill="#000000" font-family="sans-serif" font-size="13" font-weight="bold" lengthAdjust="spacing" textLength="53" x="53" y="1087.7778">patient</text><text fill="#000000" font-family="sans-serif" font-size="13" lengthAdjust="spacing" textLength="4" x="106" y="1087.7778">.</text><polygon fill="#181818" points="322,1133.1094,332,1137.1094,322,1141.1094,326,1137.1094" style="stroke:#181818;stroke-width:1.0;"/><line style="stroke:#181818;stroke-width:1.0;" x1="123" x2="328" y1="1137.1094" y2="1137.1094"/><text fill="#000000" font-family="sans-serif" font-size="13" lengthAdjust="spacing" textLength="120" x="130" y="1116.9106">GET /users/doctors</text><text fill="#000000" font-family="sans-serif" font-size="13" lengthAdjust="spacing" textLength="78" x="130" y="1132.0435">(Bearer JWT)</text><polygon fill="#181818" points="509,1162.2422,519,1166.2422,509,1170.2422,513,1166.2422" style="stroke:#181818;stroke-width:1.0;"/><line style="stroke:#181818;stroke-width:1.0;" x1="344" x2="515" y1="1166.2422" y2="1166.2422"/><text fill="#000000" font-family="sans-serif" font-size="13" lengthAdjust="spacing" textLength="75" x="351" y="1161.1763">Get doctors</text><path d="M415,1179.2422 L415,1219.2422 L626,1219.2422 L626,1189.2422 L616,1179.2422 L415,1179.2422 " fill="#FEFFDD" style="stroke:#181818;stroke-width:0.5;"/><path d="M616,1179.2422 L616,1189.2422 L626,1189.2422 L616,1179.2422 " fill="#FEFFDD" style="stroke:#181818;stroke-width:0.5;"/><text fill="#000000" font-family="sans-serif" font-size="13" lengthAdjust="spacing" textLength="190" x="421" y="1196.3091">This query could be filtered by</text><text fill="#000000" font-family="sans-serif" font-size="13" lengthAdjust="spacing" textLength="163" x="421" y="1211.4419">specialty, medical ID, etc.</text><polygon fill="#181818" points="355,1241.6406,345,1245.6406,355,1249.6406,351,1245.6406" style="stroke:#181818;stroke-width:1.0;"/><line style="stroke:#181818;stroke-width:1.0;stroke-dasharray:2.0,2.0;" x1="349" x2="520" y1="1245.6406" y2="1245.6406"/><text fill="#000000" font-family="sans-serif" font-size="13" lengthAdjust="spacing" textLength="39" x="361" y="1240.5747">Found</text><polygon fill="#181818" points="134,1270.7734,124,1274.7734,134,1278.7734,130,1274.7734" style="stroke:#181818;stroke-width:1.0;"/><line style="stroke:#181818;stroke-width:1.0;stroke-dasharray:2.0,2.0;" x1="128" x2="338" y1="1274.7734" y2="1274.7734"/><text fill="#000000" font-family="sans-serif" font-size="13" lengthAdjust="spacing" textLength="46" x="140" y="1269.7075">200 OK</text><rect fill="#EEEEEE" height="3" style="stroke:#EEEEEE;stroke-width:1.0;" width="631" x="0" y="1303.3398"/><line style="stroke:#000000;stroke-width:1.0;" x1="0" x2="631" y1="1303.3398" y2="1303.3398"/><line style="stroke:#000000;stroke-width:1.0;" x1="0" x2="631" y1="1306.3398" y2="1306.3398"/><rect fill="#EEEEEE" height="23.1328" style="stroke:#000000;stroke-width:2.0;" width="184" x="223.5" y="1292.7734"/><text fill="#000000" font-family="sans-serif" font-size="13" font-weight="bold" lengthAdjust="spacing" textLength="165" x="229.5" y="1308.8403">Getting a doctor by ID</text><path d="M5,1330.9063 L5,1370.9063 L242,1370.9063 L242,1340.9063 L232,1330.9063 L5,1330.9063 " fill="#FEFFDD" style="stroke:#181818;stroke-width:0.5;"/><path d="M232,1330.9063 L232,1340.9063 L242,1340.9063 L232,1330.9063 " fill="#FEFFDD" style="stroke:#181818;stroke-width:0.5;"/><text fill="#000000" font-family="sans-serif" font-size="13" lengthAdjust="spacing" textLength="216" x="11" y="1347.9731">In this example, the user could be</text><text fill="#000000" font-family="sans-serif" font-size="13" lengthAdjust="spacing" textLength="38" x="11" y="1363.106">only a</text><text fill="#000000" font-family="sans-serif" font-size="13" font-weight="bold" lengthAdjust="spacing" textLength="53" x="53" y="1363.106">patient</text><text fill="#000000" font-family="sans-serif" font-size="13" lengthAdjust="spacing" textLength="4" x="106" y="1363.106">.</text><polygon fill="#181818" points="322,1408.4375,332,1412.4375,322,1416.4375,326,1412.4375" style="stroke:#181818;stroke-width:1.0;"/><line style="stroke:#181818;stroke-width:1.0;" x1="123" x2="328" y1="1412.4375" y2="1412.4375"/><text fill="#000000" font-family="sans-serif" font-size="13" lengthAdjust="spacing" textLength="192" x="130" y="1392.2388">GET /users/doctors/{doctorId}</text><text fill="#000000" font-family="sans-serif" font-size="13" lengthAdjust="spacing" textLength="78" x="130" y="1407.3716">(Bearer JWT)</text><polygon fill="#181818" points="509,1437.5703,519,1441.5703,509,1445.5703,513,1441.5703" style="stroke:#181818;stroke-width:1.0;"/><line style="stroke:#181818;stroke-width:1.0;" x1="344" x2="515" y1="1441.5703" y2="1441.5703"/><text fill="#000000" font-family="sans-serif" font-size="13" lengthAdjust="spacing" textLength="104" x="351" y="1436.5044">Get doctor by ID</text><polygon fill="#181818" points="355,1466.7031,345,1470.7031,355,1474.7031,351,1470.7031" style="stroke:#181818;stroke-width:1.0;"/><line style="stroke:#181818;stroke-width:1.0;stroke-dasharray:2.0,2.0;" x1="349" x2="520" y1="1470.7031" y2="1470.7031"/><text fill="#000000" font-family="sans-serif" font-size="13" lengthAdjust="spacing" textLength="39" x="361" y="1465.6372">Found</text><polygon fill="#181818" points="134,1495.8359,124,1499.8359,134,1503.8359,130,1499.8359" style="stroke:#181818;stroke-width:1.0;"/><line style="stroke:#181818;stroke-width:1.0;stroke-dasharray:2.0,2.0;" x1="128" x2="338" y1="1499.8359" y2="1499.8359"/><text fill="#000000" font-family="sans-serif" font-size="13" lengthAdjust="spacing" textLength="46" x="140" y="1494.77">200 OK</text><!--SRC=[pLHDRnen4BtxLunoQbSaq1wHw24VJMaFH0gabqhLi1vIIyPUR2yjYlBVCrxlhY0aH2A9w6rd_3ppvhqT1nKqmSIJWszef5RcLWZCWtLm5BD7W1vA_X05kg1oLQ09wGYkoIrLJYtajq-9JUWv1foYJp1P1q8C1d3c20Ct13JLVHWCX30s4DWbHrNNeO7mHtcWVpWlD7KueWJERQabJ4aWP9cqaNAM0VEESS65oOGiEn5a9CIYGbJNZhziSEt3rUXw3DsOyu-xjmED8mLdIpwKbZmtO62M2KUBKZa2B9cMuPcvhJLhBLb9jSH0c-NMWsr2DwYLREviOHi5-qc-6jLauNYhN8B9HuLgM1y-zpwr44bFyurcNL8ul5UN5urLtJdzCXzE2HtZllySVznBQXug4OpQIR0cbjeXUOFVfVTNMveTQlTWz6Edq9D2_WzRCJc4qiyiWg6_eCpCkddQh-SDgiHxUISIx3KkDUiGXKyo-psDiaQlNh47TVEzBDhyiUjAwpEqptNr02vASgkMECoK3kJOpEbA-89oXJgiEZ0doU-WXk5v1oZawyEyuzQqprCz1fDY1WUrf7kNFeRo_itSIMEzbv0F]--></g></svg>